<svg width="24" height="27" viewBox="0 0 24 27" fill="none" xmlns="http://www.w3.org/2000/svg">
<path d="M10.5449 13C12.1694 13 13.7273 12.3547 14.876 11.206C16.0246 10.0574 16.6699 8.49945 16.6699 6.875C16.6699 5.25055 16.0246 3.69263 14.876 2.54397C13.7273 1.39531 12.1694 0.75 10.5449 0.75C8.92047 0.75 7.36255 1.39531 6.21389 2.54397C5.06523 3.69263 4.41992 5.25055 4.41992 6.875C4.41992 8.49945 5.06523 10.0574 6.21389 11.206C7.36255 12.3547 8.92047 13 10.5449 13ZM3.10742 14.75C2.2952 14.75 1.51624 15.0727 0.941908 15.647C0.367577 16.2213 0.0449219 17.0003 0.0449219 17.8125V18.25C0.0449219 20.3439 1.37755 22.1149 3.2693 23.3189C5.17155 24.5299 7.74667 25.25 10.5449 25.25C10.9089 25.25 11.2683 25.238 11.6229 25.2141C10.8653 24.4809 10.2632 23.6026 9.85246 22.6316C9.44175 21.6606 9.23087 20.6168 9.23242 19.5625C9.23242 17.7504 9.84492 16.08 10.8739 14.75H3.10742ZM17.1074 26.125C17.9692 26.125 18.8226 25.9553 19.6188 25.6255C20.415 25.2957 21.1384 24.8123 21.7478 24.2029C22.3572 23.5935 22.8406 22.8701 23.1704 22.0739C23.5002 21.2777 23.6699 20.4243 23.6699 19.5625C23.6699 18.7007 23.5002 17.8473 23.1704 17.0511C22.8406 16.2549 22.3572 15.5315 21.7478 14.9221C21.1384 14.3127 20.415 13.8293 19.6188 13.4995C18.8226 13.1697 17.9692 13 17.1074 13C15.3669 13 13.6977 13.6914 12.467 14.9221C11.2363 16.1528 10.5449 17.822 10.5449 19.5625C10.5449 21.303 11.2363 22.9722 12.467 24.2029C13.6977 25.4336 15.3669 26.125 17.1074 26.125ZM17.9824 15.4062V18.6875H21.2637C21.4377 18.6875 21.6046 18.7566 21.7277 18.8797C21.8508 19.0028 21.9199 19.1697 21.9199 19.3438C21.9199 19.5178 21.8508 19.6847 21.7277 19.8078C21.6046 19.9309 21.4377 20 21.2637 20H17.9824V23.2812C17.9824 23.4553 17.9133 23.6222 17.7902 23.7453C17.6671 23.8684 17.5002 23.9375 17.3262 23.9375C17.1521 23.9375 16.9852 23.8684 16.8621 23.7453C16.7391 23.6222 16.6699 23.4553 16.6699 23.2812V20H13.3887C13.2146 20 13.0477 19.9309 12.9246 19.8078C12.8016 19.6847 12.7324 19.5178 12.7324 19.3438C12.7324 19.1697 12.8016 19.0028 12.9246 18.8797C13.0477 18.7566 13.2146 18.6875 13.3887 18.6875H16.6699V15.4062C16.6699 15.2322 16.7391 15.0653 16.8621 14.9422C16.9852 14.8191 17.1521 14.75 17.3262 14.75C17.5002 14.75 17.6671 14.8191 17.7902 14.9422C17.9133 15.0653 17.9824 15.2322 17.9824 15.4062Z" fill="#259240"/>
</svg>
