<svg width="29" height="28" viewBox="0 0 29 28" fill="none" xmlns="http://www.w3.org/2000/svg">
<g clip-path="url(#clip0_127_1649)">
<path d="M16.3365 12.6V7H13.5365V12.6H7.93652V15.4H13.5365V21H16.3365V15.4H21.9365V12.6H16.3365ZM14.9365 28C11.2235 28 7.66254 26.525 5.03703 23.8995C2.41152 21.274 0.936523 17.713 0.936523 14C0.936523 10.287 2.41152 6.72601 5.03703 4.1005C7.66254 1.475 11.2235 0 14.9365 0C18.6496 0 22.2105 1.475 24.836 4.1005C27.4615 6.72601 28.9365 10.287 28.9365 14C28.9365 17.713 27.4615 21.274 24.836 23.8995C22.2105 26.525 18.6496 28 14.9365 28Z" fill="#259240"/>
</g>
<defs>
<clipPath id="clip0_127_1649">
<rect width="28" height="28" fill="white" transform="translate(0.936523)"/>
</clipPath>
</defs>
</svg>
