<svg width="50" height="50" viewBox="0 0 50 50" fill="none" xmlns="http://www.w3.org/2000/svg">
<path d="M9.60005 0.300049C7.13354 0.300049 4.76804 1.27987 3.02396 3.02396C1.27987 4.76804 0.300049 7.13354 0.300049 9.60005V34.4C0.300049 36.8666 1.27987 39.2321 3.02396 40.9761C4.76804 42.7202 7.13354 43.7 9.60005 43.7H20.76C19.7312 41.6823 19.1147 39.4797 18.9465 37.221C16.8478 36.8273 14.9227 36.012 13.3572 34.7565C11.026 32.881 9.60005 30.1096 9.60005 26.65C9.60005 25.4168 10.09 24.234 10.962 23.362C11.834 22.49 13.0168 22 14.25 22H26.1447C28.9192 20.047 32.3013 18.9 35.95 18.9C38.74 18.9 41.375 19.5696 43.7 20.76V9.60005C43.7 7.13354 42.7202 4.76804 40.9761 3.02396C39.2321 1.27987 36.8666 0.300049 34.4 0.300049H9.60005ZM15.8 12.7C15.8 11.0557 16.4533 9.47871 17.616 8.31599C18.7787 7.15326 20.3557 6.50005 22 6.50005C23.6444 6.50005 25.2214 7.15326 26.3841 8.31599C27.5468 9.47871 28.2 11.0557 28.2 12.7C28.2 14.3444 27.5468 15.9214 26.3841 17.0841C25.2214 18.2468 23.6444 18.9 22 18.9C20.3557 18.9 18.7787 18.2468 17.616 17.0841C16.4533 15.9214 15.8 14.3444 15.8 12.7ZM49.9 35.95C49.9 39.6498 48.4303 43.1981 45.8142 45.8142C43.1981 48.4303 39.6498 49.9 35.95 49.9C32.2503 49.9 28.702 48.4303 26.0859 45.8142C23.4698 43.1981 22 39.6498 22 35.95C22 32.2503 23.4698 28.702 26.0859 26.0859C28.702 23.4698 32.2503 22 35.95 22C39.6498 22 43.1981 23.4698 45.8142 26.0859C48.4303 28.702 49.9 32.2503 49.9 35.95ZM37.5 29.75C37.5 29.339 37.3367 28.9447 37.0461 28.654C36.7554 28.3633 36.3611 28.2 35.95 28.2C35.539 28.2 35.1447 28.3633 34.854 28.654C34.5634 28.9447 34.4 29.339 34.4 29.75V34.4H29.75C29.339 34.4 28.9447 34.5634 28.654 34.854C28.3633 35.1447 28.2 35.539 28.2 35.95C28.2 36.3611 28.3633 36.7554 28.654 37.0461C28.9447 37.3367 29.339 37.5 29.75 37.5H34.4V42.15C34.4 42.5611 34.5634 42.9554 34.854 43.2461C35.1447 43.5367 35.539 43.7 35.95 43.7C36.3611 43.7 36.7554 43.5367 37.0461 43.2461C37.3367 42.9554 37.5 42.5611 37.5 42.15V37.5H42.15C42.5611 37.5 42.9554 37.3367 43.2461 37.0461C43.5367 36.7554 43.7 36.3611 43.7 35.95C43.7 35.539 43.5367 35.1447 43.2461 34.854C42.9554 34.5634 42.5611 34.4 42.15 34.4H37.5V29.75Z" fill="#274373"/>
</svg>
