<svg width="26" height="23" viewBox="0 0 26 23" fill="none" xmlns="http://www.w3.org/2000/svg">
<path d="M10.2122 22.8793C9.94002 22.8793 9.6678 22.8307 9.39557 22.7335C9.12335 22.6363 8.88029 22.4807 8.66641 22.2668C7.86918 21.5668 7.01363 20.7455 6.09974 19.8028C5.18585 18.8602 4.34507 17.8491 3.57741 16.7695C2.80974 15.6899 2.16807 14.5668 1.65241 13.4002C1.13674 12.2335 0.878906 11.0668 0.878906 9.90016C0.878906 6.9835 1.8173 4.65988 3.69407 2.92933C5.57085 1.19877 7.74357 0.333496 10.2122 0.333496C11.4761 0.333496 12.672 0.571885 13.7997 1.04866C14.9275 1.52544 15.9192 2.17177 16.7747 2.98766C17.6303 3.80355 18.3109 4.76605 18.8164 5.87516C19.322 6.98427 19.5747 8.17038 19.5747 9.4335C19.5747 9.93905 19.4484 10.3377 19.1956 10.6293C18.9428 10.921 18.622 11.1446 18.2331 11.3002C17.4942 11.5918 16.8381 11.9955 16.2649 12.5112C15.6917 13.0268 15.2102 13.6148 14.8206 14.2752C14.4317 14.9557 14.1595 15.6752 14.0039 16.4335C13.8484 17.1918 13.8192 17.9696 13.9164 18.7668C13.9747 19.1946 13.965 19.5738 13.8872 19.9043C13.8095 20.2349 13.615 20.546 13.3039 20.8377L12.5456 21.5377L11.7581 22.2668C11.5442 22.4807 11.3011 22.6363 11.0289 22.7335C10.7567 22.8307 10.4845 22.8793 10.2122 22.8793ZM10.2122 9.66683C10.8539 9.66683 11.4034 9.43855 11.8607 8.982C12.3181 8.52544 12.5464 7.97594 12.5456 7.3335C12.5448 6.69105 12.3165 6.14194 11.8607 5.68616C11.405 5.23038 10.8555 5.00172 10.2122 5.00016C9.56902 4.99861 9.01991 5.22727 8.56491 5.68616C8.10991 6.14505 7.88124 6.69416 7.87891 7.3335C7.87657 7.97283 8.10524 8.52233 8.56491 8.982C9.02457 9.44166 9.57368 9.66994 10.2122 9.66683ZM21.2081 19.0002H17.5039C17.1733 19.0002 16.8965 18.8882 16.6732 18.6642C16.45 18.4402 16.338 18.1633 16.3372 17.8335C16.3365 17.5037 16.4485 17.2268 16.6732 17.0028C16.898 16.7788 17.1749 16.6668 17.5039 16.6668H21.2081L20.1581 15.6168C19.9442 15.4029 19.8372 15.1358 19.8372 14.8153C19.8372 14.4949 19.9539 14.2176 20.1872 13.9835C20.4011 13.7696 20.6733 13.6627 21.0039 13.6627C21.3345 13.6627 21.6067 13.7696 21.8206 13.9835L24.8539 17.0168C25.0872 17.2502 25.2039 17.5224 25.2039 17.8335C25.2039 18.1446 25.0872 18.4168 24.8539 18.6502L21.8206 21.6835C21.6067 21.8974 21.3395 22.0094 21.0191 22.0195C20.6986 22.0296 20.4213 21.9176 20.1872 21.6835C19.9733 21.4696 19.8664 21.1974 19.8664 20.8668C19.8664 20.5363 19.9733 20.2641 20.1872 20.0502L21.2081 19.0002ZM10.2122 15.5002C11.0289 15.5002 11.802 15.3349 12.5316 15.0043C13.2611 14.6738 13.9075 14.2071 14.4706 13.6043C14.5678 13.5071 14.6358 13.3951 14.6747 13.2683C14.7136 13.1416 14.7331 13.0105 14.7331 12.8752C14.7331 12.6613 14.6895 12.4618 14.6024 12.2767C14.5153 12.0916 14.3741 11.9508 14.1789 11.8543C13.5761 11.5043 12.9391 11.2465 12.2679 11.0808C11.5967 10.9152 10.9115 10.8327 10.2122 10.8335C9.51302 10.8343 8.82741 10.9171 8.15541 11.082C7.48341 11.2469 6.8468 11.5043 6.24557 11.8543C6.07057 11.9516 5.93446 12.0877 5.83724 12.2627C5.74002 12.4377 5.69141 12.6321 5.69141 12.846C5.69141 13.0016 5.71085 13.1427 5.74974 13.2695C5.78863 13.3963 5.85668 13.5079 5.95391 13.6043C6.51779 14.2071 7.16452 14.6738 7.89407 15.0043C8.62363 15.3349 9.39635 15.5002 10.2122 15.5002Z" fill="#274373"/>
</svg>
