<svg width="16" height="16" viewBox="0 0 16 16" fill="none" xmlns="http://www.w3.org/2000/svg">
<path d="M10.3333 8.00008C11.9999 8.00008 13.3333 9.33342 13.3333 11.0001C13.3333 11.5867 13.1666 12.1401 12.8733 12.6001L14.9266 14.6667L13.9999 15.5934L11.9199 13.5467C11.4599 13.8334 10.9133 14.0001 10.3333 14.0001C8.66659 14.0001 7.33325 12.6667 7.33325 11.0001C7.33325 9.33342 8.66659 8.00008 10.3333 8.00008ZM10.3333 9.33342C9.89122 9.33342 9.4673 9.50901 9.15474 9.82157C8.84218 10.1341 8.66659 10.5581 8.66659 11.0001C8.66659 11.4421 8.84218 11.866 9.15474 12.1786C9.4673 12.4912 9.89122 12.6667 10.3333 12.6667C10.7753 12.6667 11.1992 12.4912 11.5118 12.1786C11.8243 11.866 11.9999 11.4421 11.9999 11.0001C11.9999 10.5581 11.8243 10.1341 11.5118 9.82157C11.1992 9.50901 10.7753 9.33342 10.3333 9.33342ZM6.66659 2.66675C7.37383 2.66675 8.05211 2.9477 8.5522 3.4478C9.0523 3.94789 9.33325 4.62617 9.33325 5.33341C9.33325 5.94008 9.12659 6.50008 8.78659 6.95341C8.21325 7.16675 7.69992 7.50675 7.27325 7.93341L6.66659 8.00008C5.95934 8.00008 5.28106 7.71913 4.78097 7.21903C4.28087 6.71894 3.99992 6.04066 3.99992 5.33341C3.99992 4.62617 4.28087 3.94789 4.78097 3.4478C5.28106 2.9477 5.95934 2.66675 6.66659 2.66675ZM1.33325 13.3334V12.0001C1.33325 10.5867 3.53992 9.42675 6.33325 9.33342C6.11992 9.85342 5.99992 10.4134 5.99992 11.0001C5.99992 11.8601 6.25325 12.6667 6.66659 13.3334H1.33325Z" fill="#274373"/>
</svg>
