<svg width="29" height="28" viewBox="0 0 29 28" fill="none" xmlns="http://www.w3.org/2000/svg">
<path fill-rule="evenodd" clip-rule="evenodd" d="M14.1158 7.20532H6.74251C5.45335 7.20532 4.40918 8.31249 4.40918 9.67632V22.029C4.40918 23.394 5.45335 24.5 6.74251 24.5H19.5758C20.865 24.5 21.9092 23.394 21.9092 22.029V12.9873L17.3428 17.822C16.9441 18.2484 16.4248 18.5431 15.8542 18.6667L12.7263 19.3293C10.6847 19.761 8.88568 17.8558 9.29401 15.6952L9.91935 12.383C10.0325 11.7857 10.3102 11.2362 10.7173 10.8057L14.1158 7.20532Z" fill="white"/>
<path fill-rule="evenodd" clip-rule="evenodd" d="M24.0631 5.03765C23.9452 4.73902 23.7723 4.46517 23.5533 4.23031C23.338 4.00063 23.0785 3.81689 22.7903 3.69015C22.5064 3.56547 22.1997 3.5011 21.8896 3.5011C21.5796 3.5011 21.2729 3.56547 20.989 3.69015C20.7008 3.81689 20.4413 4.00063 20.226 4.23031L19.589 4.90465L22.9163 8.42798L23.5533 7.75248C23.7746 7.51941 23.9478 7.24509 24.0631 6.94515C24.3035 6.33203 24.3035 5.65077 24.0631 5.03765ZM21.2678 10.1745L17.9393 6.64998L12.3661 12.5533C12.2839 12.6409 12.2285 12.7502 12.2063 12.8683L11.581 16.1816C11.4993 16.6133 11.8598 16.9936 12.267 16.9073L15.396 16.2458C15.5098 16.2204 15.6135 16.1615 15.6935 16.0766L21.2678 10.1745Z" fill="white"/>
</svg>
