<svg width="16" height="16" viewBox="0 0 16 16" fill="none" xmlns="http://www.w3.org/2000/svg">
<path d="M7.99983 7.10209C9.16822 7.10209 10.1154 6.16687 10.1154 5.01321C10.1154 3.85954 9.16822 2.92432 7.99983 2.92432C6.83144 2.92432 5.88428 3.85954 5.88428 5.01321C5.88428 6.16687 6.83144 7.10209 7.99983 7.10209Z" fill="#274373"/>
<path d="M4.7909 5.2222H5.00424V5.03109C5.00553 4.47536 5.16232 3.93108 5.45686 3.45981C5.75139 2.98855 6.17193 2.60911 6.6709 2.36443C6.52319 2.02423 6.28609 1.7304 5.98479 1.51413C5.68348 1.29786 5.32923 1.16724 4.95966 1.13614C4.59008 1.10504 4.21899 1.17461 3.88578 1.33748C3.55257 1.50034 3.26969 1.75042 3.0672 2.06114C2.8647 2.37186 2.75014 2.73163 2.73569 3.10223C2.72123 3.47283 2.80743 3.84042 2.98511 4.16597C3.1628 4.49151 3.42534 4.76286 3.74485 4.95118C4.06436 5.1395 4.42892 5.23776 4.79979 5.23554L4.7909 5.2222ZM11.0042 5.01331V5.20443H11.2176C11.5835 5.20075 11.9417 5.0985 12.2544 4.90842C12.5671 4.71835 12.8228 4.44748 12.9946 4.12434C13.1663 3.80119 13.2478 3.43772 13.2304 3.07218C13.213 2.70664 13.0974 2.35255 12.8957 2.04719C12.694 1.74182 12.4138 1.49647 12.0844 1.33696C11.755 1.17745 11.3888 1.10968 11.0241 1.14078C10.6595 1.17189 10.31 1.30072 10.0124 1.51371C9.71483 1.7267 9.48016 2.01598 9.33313 2.35109C9.83225 2.59482 10.2533 2.9733 10.5486 3.44375C10.8439 3.9142 11.0017 4.45787 11.0042 5.01331ZM9.90646 7.31109C10.7901 7.48629 11.6444 7.78555 12.4442 8.19998C12.5569 8.2618 12.659 8.34134 12.7465 8.43554H15.1109V6.91554C15.1113 6.85724 15.0958 6.79993 15.0661 6.7498C15.0363 6.69967 14.9934 6.65862 14.942 6.63109C13.7901 6.02857 12.5087 5.71584 11.2087 5.71998H10.9153C10.7613 6.34608 10.4071 6.90476 9.90646 7.31109ZM2.90201 9.29776C2.9012 9.07392 2.96165 8.85413 3.07681 8.66219C3.19198 8.47026 3.35746 8.31349 3.55535 8.20887C4.35515 7.79444 5.20953 7.49518 6.09313 7.31998C5.59493 6.9171 5.24091 6.36346 5.08424 5.7422H4.7909C3.49092 5.73806 2.2095 6.05079 1.05757 6.65331C1.00618 6.68084 0.963283 6.72189 0.933518 6.77202C0.903754 6.82215 0.88825 6.87946 0.888681 6.93776V9.77776H2.90201V9.29776ZM9.53757 11.8622H12.1865V12.4844H9.53757V11.8622Z" fill="#274373"/>
<path d="M14.5821 9.44895H11.5288V9.00451C11.5288 8.88663 11.482 8.77359 11.3986 8.69024C11.3153 8.60689 11.2022 8.56006 11.0844 8.56006C10.9665 8.56006 10.8534 8.60689 10.7701 8.69024C10.6867 8.77359 10.6399 8.88663 10.6399 9.00451V9.44895H9.77769V8.19117C9.19303 8.06788 8.59742 8.00385 7.99991 8.00006C6.59721 7.99476 5.2146 8.33355 3.97325 8.98673C3.91796 9.01541 3.87169 9.05881 3.83953 9.11215C3.80737 9.16548 3.79058 9.22667 3.79102 9.28895V11.7823H6.95102V14.4889C6.95102 14.6068 6.99785 14.7199 7.0812 14.8032C7.16455 14.8866 7.27759 14.9334 7.39547 14.9334H14.5821C14.7 14.9334 14.8131 14.8866 14.8964 14.8032C14.9798 14.7199 15.0266 14.6068 15.0266 14.4889V9.89339C15.0266 9.77552 14.9798 9.66247 14.8964 9.57912C14.8131 9.49577 14.7 9.44895 14.5821 9.44895ZM14.1377 14.0534H7.83991V10.3378H10.6399V10.7423C10.6399 10.8602 10.6867 10.9732 10.7701 11.0566C10.8534 11.1399 10.9665 11.1867 11.0844 11.1867C11.2022 11.1867 11.3153 11.1399 11.3986 11.0566C11.482 10.9732 11.5288 10.8602 11.5288 10.7423V10.3378H14.1377V14.0534Z" fill="#274373"/>
</svg>
