<svg width="40" height="40" viewBox="0 0 40 40" fill="none" xmlns="http://www.w3.org/2000/svg">
<path d="M20.4669 18.1224C19.2172 18.1092 17.9993 17.7266 16.9666 17.0228C15.9339 16.3189 15.1325 15.3252 14.6634 14.1669C14.1942 13.0085 14.0783 11.7372 14.3301 10.5131C14.582 9.28899 15.1904 8.16674 16.0787 7.28766C16.967 6.40859 18.0956 5.81198 19.3223 5.57296C20.549 5.33395 21.819 5.4632 22.9723 5.94445C24.1257 6.4257 25.1109 7.23744 25.804 8.27746C26.497 9.31747 26.8668 10.5393 26.8669 11.789C26.8551 13.4767 26.1749 15.0909 24.9753 16.278C23.7757 17.4651 22.1545 18.1283 20.4669 18.1224ZM20.4669 7.67793C19.6567 7.69107 18.8685 7.9433 18.2013 8.40295C17.5341 8.8626 17.0175 9.50916 16.7166 10.2614C16.4156 11.0137 16.3436 11.8381 16.5097 12.6312C16.6758 13.4242 17.0725 14.1505 17.65 14.7188C18.2275 15.2871 18.9601 15.6721 19.7557 15.8254C20.5513 15.9787 21.3745 15.8934 22.1218 15.5804C22.8691 15.2674 23.5073 14.7405 23.9562 14.066C24.405 13.3914 24.6445 12.5993 24.6446 11.789C24.6329 10.6908 24.1869 9.64183 23.404 8.87147C22.6212 8.1011 21.5652 7.67199 20.4669 7.67793Z" fill="white"/>
<path d="M20.4668 18.1224C19.2171 18.1092 17.9993 17.7266 16.9666 17.0228C15.9339 16.3189 15.1325 15.3252 14.6633 14.1669C14.1942 13.0085 14.0782 11.7372 14.3301 10.5131C14.5819 9.28899 15.1903 8.16674 16.0787 7.28766C16.967 6.40859 18.0955 5.81198 19.3222 5.57296C20.5489 5.33395 21.8189 5.4632 22.9723 5.94445C24.1257 6.4257 25.1109 7.23744 25.8039 8.27746C26.4969 9.31747 26.8668 10.5393 26.8668 11.789C26.8551 13.4767 26.1749 15.0909 24.9753 16.278C23.7757 17.4651 22.1545 18.1283 20.4668 18.1224ZM20.4668 7.67793C19.6567 7.69107 18.8685 7.9433 18.2013 8.40295C17.534 8.8626 17.0175 9.50916 16.7165 10.2614C16.4156 11.0137 16.3436 11.8381 16.5097 12.6312C16.6757 13.4242 17.0725 14.1505 17.65 14.7188C18.2275 15.2871 18.9601 15.6721 19.7557 15.8254C20.5513 15.9787 21.3744 15.8934 22.1218 15.5804C22.8691 15.2674 23.5073 14.7405 23.9561 14.066C24.405 13.3914 24.6445 12.5993 24.6446 11.789C24.6329 10.6908 24.1868 9.64183 23.404 8.87147C22.6211 8.1011 21.5651 7.67199 20.4668 7.67793ZM24.3446 19.6113C19.4163 18.7537 14.3428 19.5342 9.90016 21.8335C9.5848 22.0086 9.32367 22.2671 9.14534 22.5806C8.96701 22.8941 8.87834 23.2507 8.88905 23.6113V27.5668C8.88905 27.8615 9.00611 28.1441 9.21449 28.3525C9.42286 28.5609 9.70548 28.6779 10.0002 28.6779C10.2948 28.6779 10.5775 28.5609 10.7858 28.3525C10.9942 28.1441 11.1113 27.8615 11.1113 27.5668V23.7557C15.2309 21.6886 19.9157 21.0328 24.4446 21.889L24.3446 19.6113Z" fill="white"/>
<path d="M36.6667 24.4445H29.2223V22.8001C29.2223 22.5054 29.1052 22.2228 28.8968 22.0144C28.6885 21.806 28.4059 21.689 28.1112 21.689C27.8165 21.689 27.5339 21.806 27.3255 22.0144C27.1171 22.2228 27.0001 22.5054 27.0001 22.8001V24.4445H18.8889C18.5943 24.4445 18.3116 24.5616 18.1033 24.77C17.8949 24.9783 17.7778 25.2609 17.7778 25.5556V36.6667C17.7778 36.9614 17.8949 37.244 18.1033 37.4524C18.3116 37.6608 18.5943 37.7779 18.8889 37.7779H36.6667C36.9614 37.7779 37.244 37.6608 37.4524 37.4524C37.6608 37.244 37.7778 36.9614 37.7778 36.6667V25.5556C37.7778 25.2609 37.6608 24.9783 37.4524 24.77C37.244 24.5616 36.9614 24.4445 36.6667 24.4445ZM35.5556 35.5556H20.0001V26.6667H27.0001V27.1223C27.0001 27.417 27.1171 27.6996 27.3255 27.908C27.5339 28.1163 27.8165 28.2334 28.1112 28.2334C28.4059 28.2334 28.6885 28.1163 28.8968 27.908C29.1052 27.6996 29.2223 27.417 29.2223 27.1223V26.6667H35.5556V35.5556Z" fill="white"/>
<path d="M24.2333 30.4666H30.8555V32.0221H24.2333V30.4666ZM12.0444 13.5999C8.96822 13.6514 5.94539 14.4118 3.21106 15.8221C2.91368 15.9792 2.66459 16.2142 2.49041 16.5018C2.31623 16.7895 2.22351 17.1192 2.22217 17.4555V20.8999C2.22217 21.1946 2.33923 21.4772 2.5476 21.6856C2.75598 21.894 3.03859 22.011 3.33328 22.011C3.62796 22.011 3.91058 21.894 4.11895 21.6856C4.32733 21.4772 4.44439 21.1946 4.44439 20.8999V17.6777C7.05694 16.3773 9.94946 15.74 12.8666 15.8221C12.4849 15.1258 12.2079 14.377 12.0444 13.5999ZM36.7888 15.811C34.3365 14.5246 31.6413 13.7675 28.8777 13.5888C28.715 14.3645 28.4418 15.1129 28.0666 15.811C30.67 15.8733 33.2274 16.5108 35.5555 17.6777V20.8999C35.5555 21.1946 35.6726 21.4772 35.8809 21.6856C36.0893 21.894 36.3719 22.011 36.6666 22.011C36.9613 22.011 37.2439 21.894 37.4523 21.6856C37.6607 21.4772 37.7777 21.1946 37.7777 20.8999V17.4555C37.7784 17.1173 37.6866 16.7853 37.5123 16.4955C37.3381 16.2057 37.0879 15.969 36.7888 15.811ZM11.8444 11.7888V11.0444C10.974 10.9279 10.182 10.4802 9.63336 9.79446C9.08472 9.10875 8.82167 8.23786 8.89899 7.36309C8.9763 6.48831 9.38801 5.67706 10.0484 5.0982C10.7088 4.51934 11.567 4.21749 12.4444 4.25547C13.357 4.25382 14.2341 4.60866 14.8888 5.24436C15.4665 4.76789 16.101 4.36482 16.7777 4.04436C16.0217 3.17509 15.0201 2.55529 13.9048 2.26666C12.7895 1.97803 11.613 2.03411 10.5302 2.42751C9.44745 2.82092 8.5093 3.53318 7.83942 4.47042C7.16955 5.40766 6.79938 6.52588 6.77772 7.67769C6.80104 9.08742 7.34906 10.4378 8.31472 11.4651C9.28039 12.4924 10.5944 13.1229 11.9999 13.2332C11.9057 12.7573 11.8536 12.2739 11.8444 11.7888ZM27.5222 2.03325C26.7586 2.03342 26.0027 2.18581 25.2988 2.48152C24.5948 2.77723 23.9568 3.21032 23.4222 3.75547C24.1733 4.02766 24.8836 4.40151 25.5333 4.86658C26.052 4.5065 26.6587 4.29395 27.2887 4.25159C27.9188 4.20923 28.5485 4.33865 29.1107 4.62605C29.673 4.91345 30.1467 5.34805 30.4814 5.88352C30.816 6.41899 30.9991 7.03525 31.0111 7.66658C31.0041 8.31507 30.8136 8.94831 30.4616 9.493C30.1096 10.0377 29.6105 10.4716 29.0222 10.7444C29.0669 11.087 29.0891 11.4322 29.0888 11.7777C29.0859 12.2243 29.0487 12.6701 28.9777 13.111C30.1882 12.7998 31.2618 12.0972 32.0314 11.1125C32.8011 10.1278 33.2236 8.91634 33.2333 7.66658C33.2186 6.16359 32.6097 4.72747 31.5396 3.67196C30.4696 2.61644 29.0252 2.0273 27.5222 2.03325Z" fill="white"/>
</svg>
