<svg width="13" height="16" viewBox="0 0 13 16" fill="none" xmlns="http://www.w3.org/2000/svg">
<path d="M1.47768 6.97582H2.59288V14.1438H4.26616V7.99982H5.93944V14.1438H7.6124V7.99982H9.286V14.1438H10.9593V6.97582H12.0742C12.3823 6.97582 12.6322 6.7467 12.6322 6.46382C12.6322 6.29294 12.5401 6.14254 12.3996 6.04974L12.4006 6.04878L12.3922 6.04398L12.3778 6.03534L7.05464 3.28046V2.47342C8.03768 2.92526 8.84696 2.14702 10.1218 2.61486V0.832144C8.84632 0.364304 8.03736 1.1419 7.05464 0.690384V0.575824C7.05464 0.434064 6.93016 0.319824 6.77592 0.319824C6.62168 0.319824 6.49752 0.434064 6.49752 0.575824V3.28046L1.17432 6.0347L1.15992 6.04334L1.15192 6.04878V6.04974C1.01208 6.14254 0.920242 6.29326 0.920242 6.46382C0.919922 6.7467 1.16984 6.97582 1.47768 6.97582ZM2.03512 14.6561L0.919922 15.6798H12.6326L11.5167 14.6561H2.03512Z" fill="#274373"/>
</svg>
