<svg width="50" height="50" viewBox="0 0 50 50" fill="none" xmlns="http://www.w3.org/2000/svg">
<path d="M9.5998 0.299805C7.13329 0.299805 4.7678 1.27962 3.02371 3.02371C1.27962 4.7678 0.299805 7.13329 0.299805 9.5998V34.3998C0.299805 36.8663 1.27962 39.2318 3.02371 40.9759C4.7678 42.72 7.13329 43.6998 9.5998 43.6998H20.7598C19.731 41.682 19.1145 39.4795 18.9463 37.2208C16.8476 36.8271 14.9225 36.0118 13.357 34.7563C11.0258 32.8808 9.5998 30.1094 9.5998 26.6498C9.5998 25.4165 10.0897 24.2338 10.9618 23.3618C11.8338 22.4897 13.0165 21.9998 14.2498 21.9998H26.1445C28.919 20.0468 32.3011 18.8998 35.9498 18.8998C38.7398 18.8998 41.3748 19.5694 43.6998 20.7598V9.5998C43.6998 7.13329 42.72 4.7678 40.9759 3.02371C39.2318 1.27962 36.8663 0.299805 34.3998 0.299805H9.5998ZM15.7998 12.6998C15.7998 11.0555 16.453 9.47847 17.6157 8.31574C18.7785 7.15302 20.3555 6.4998 21.9998 6.4998C23.6441 6.4998 25.2211 7.15302 26.3839 8.31574C27.5466 9.47847 28.1998 11.0555 28.1998 12.6998C28.1998 14.3441 27.5466 15.9211 26.3839 17.0839C25.2211 18.2466 23.6441 18.8998 21.9998 18.8998C20.3555 18.8998 18.7785 18.2466 17.6157 17.0839C16.453 15.9211 15.7998 14.3441 15.7998 12.6998ZM49.8998 35.9498C49.8998 39.6496 48.4301 43.1978 45.8139 45.8139C43.1978 48.4301 39.6496 49.8998 35.9498 49.8998C32.25 49.8998 28.7018 48.4301 26.0857 45.8139C23.4695 43.1978 21.9998 39.6496 21.9998 35.9498C21.9998 32.25 23.4695 28.7018 26.0857 26.0857C28.7018 23.4695 32.25 21.9998 35.9498 21.9998C39.6496 21.9998 43.1978 23.4695 45.8139 26.0857C48.4301 28.7018 49.8998 32.25 49.8998 35.9498ZM37.4998 29.7498C37.4998 29.3387 37.3365 28.9445 37.0458 28.6538C36.7551 28.3631 36.3609 28.1998 35.9498 28.1998C35.5387 28.1998 35.1445 28.3631 34.8538 28.6538C34.5631 28.9445 34.3998 29.3387 34.3998 29.7498V34.3998H29.7498C29.3387 34.3998 28.9445 34.5631 28.6538 34.8538C28.3631 35.1445 28.1998 35.5387 28.1998 35.9498C28.1998 36.3609 28.3631 36.7551 28.6538 37.0458C28.9445 37.3365 29.3387 37.4998 29.7498 37.4998H34.3998V42.1498C34.3998 42.5609 34.5631 42.9551 34.8538 43.2458C35.1445 43.5365 35.5387 43.6998 35.9498 43.6998C36.3609 43.6998 36.7551 43.5365 37.0458 43.2458C37.3365 42.9551 37.4998 42.5609 37.4998 42.1498V37.4998H42.1498C42.5609 37.4998 42.9551 37.3365 43.2458 37.0458C43.5365 36.7551 43.6998 36.3609 43.6998 35.9498C43.6998 35.5387 43.5365 35.1445 43.2458 34.8538C42.9551 34.5631 42.5609 34.3998 42.1498 34.3998H37.4998V29.7498Z" fill="#274373"/>
</svg>
