<svg width="29" height="28" viewBox="0 0 29 28" fill="none" xmlns="http://www.w3.org/2000/svg">
<rect x="0.620117" y="0.5" width="27" height="27" stroke="#FAFBFD"/>
<path d="M14.1201 14C15.7446 14 17.3025 13.3547 18.4511 12.206C19.5998 11.0574 20.2451 9.49945 20.2451 7.875C20.2451 6.25055 19.5998 4.69263 18.4511 3.54397C17.3025 2.39531 15.7446 1.75 14.1201 1.75C12.4957 1.75 10.9377 2.39531 9.78909 3.54397C8.64043 4.69263 7.99512 6.25055 7.99512 7.875C7.99512 9.49945 8.64043 11.0574 9.78909 12.206C10.9377 13.3547 12.4957 14 14.1201 14ZM6.68262 15.75C5.87039 15.75 5.09143 16.0727 4.5171 16.647C3.94277 17.2213 3.62012 18.0003 3.62012 18.8125V19.25C3.62012 21.3439 4.95274 23.1149 6.84449 24.3189C8.74674 25.5299 11.3219 26.25 14.1201 26.25C14.4841 26.25 14.8435 26.238 15.1981 26.2141C14.4405 25.4809 13.8384 24.6026 13.4277 23.6316C13.0169 22.6606 12.8061 21.6168 12.8076 20.5625C12.8076 18.7504 13.4201 17.08 14.4491 15.75H6.68262ZM20.6826 27.125C21.5444 27.125 22.3978 26.9553 23.194 26.6255C23.9902 26.2957 24.7136 25.8123 25.323 25.2029C25.9324 24.5935 26.4158 23.8701 26.7456 23.0739C27.0754 22.2777 27.2451 21.4243 27.2451 20.5625C27.2451 19.7007 27.0754 18.8473 26.7456 18.0511C26.4158 17.2549 25.9324 16.5315 25.323 15.9221C24.7136 15.3127 23.9902 14.8293 23.194 14.4995C22.3978 14.1697 21.5444 14 20.6826 14C18.9421 14 17.2729 14.6914 16.0422 15.9221C14.8115 17.1528 14.1201 18.822 14.1201 20.5625C14.1201 22.303 14.8115 23.9722 16.0422 25.2029C17.2729 26.4336 18.9421 27.125 20.6826 27.125ZM21.5576 16.4062V19.6875H24.8389C25.0129 19.6875 25.1798 19.7566 25.3029 19.8797C25.426 20.0028 25.4951 20.1697 25.4951 20.3438C25.4951 20.5178 25.426 20.6847 25.3029 20.8078C25.1798 20.9309 25.0129 21 24.8389 21H21.5576V24.2812C21.5576 24.4553 21.4885 24.6222 21.3654 24.7453C21.2423 24.8684 21.0754 24.9375 20.9014 24.9375C20.7273 24.9375 20.5604 24.8684 20.4373 24.7453C20.3143 24.6222 20.2451 24.4553 20.2451 24.2812V21H16.9639C16.7898 21 16.6229 20.9309 16.4998 20.8078C16.3768 20.6847 16.3076 20.5178 16.3076 20.3438C16.3076 20.1697 16.3768 20.0028 16.4998 19.8797C16.6229 19.7566 16.7898 19.6875 16.9639 19.6875H20.2451V16.4062C20.2451 16.2322 20.3143 16.0653 20.4373 15.9422C20.5604 15.8191 20.7273 15.75 20.9014 15.75C21.0754 15.75 21.2423 15.8191 21.3654 15.9422C21.4885 16.0653 21.5576 16.2322 21.5576 16.4062Z" fill="#274373"/>
</svg>
