<svg width="17" height="18" viewBox="0 0 17 18" fill="none" xmlns="http://www.w3.org/2000/svg">
<path d="M2.70833 0.5C1.99004 0.5 1.30116 0.785341 0.793252 1.29325C0.285341 1.80116 0 2.49004 0 3.20833V12.7917C0 13.51 0.285341 14.1988 0.793252 14.7067C1.30116 15.2147 1.99004 15.5 2.70833 15.5H8.47667C8.38083 15.1968 8.33248 14.8805 8.33333 14.5625V14.4767C8.33311 14.1732 8.39274 13.8726 8.5088 13.5922C8.62487 13.3118 8.79509 13.057 9.00972 12.8425C9.22436 12.6279 9.47919 12.4578 9.75965 12.3418C10.0401 12.2259 10.3407 12.1663 10.6442 12.1667H10.875C10.328 11.6197 10.0207 10.8778 10.0207 10.1042C10.0207 9.33058 10.328 8.58868 10.875 8.04167C11.422 7.49466 12.1639 7.18735 12.9375 7.18735C13.7111 7.18735 14.453 7.49466 15 8.04167V3.20833C15 2.49004 14.7147 1.80116 14.2067 1.29325C13.6988 0.785341 13.01 0.5 12.2917 0.5H2.70833ZM11.9 5.73333L6.27167 11.3558C6.15448 11.4729 5.99563 11.5386 5.83 11.5386C5.66437 11.5386 5.50552 11.4729 5.38833 11.3558L3.1 9.06667C2.9896 8.94819 2.9295 8.79148 2.93235 8.62956C2.93521 8.46765 3.0008 8.31316 3.11531 8.19865C3.22983 8.08414 3.38431 8.01854 3.54623 8.01569C3.70815 8.01283 3.86485 8.07293 3.98333 8.18333L5.83083 10.03L11.0167 4.84917C11.0748 4.79117 11.1437 4.74518 11.2196 4.71383C11.2955 4.68248 11.3768 4.66639 11.4589 4.66647C11.541 4.66654 11.6223 4.68279 11.6981 4.71428C11.774 4.74577 11.8428 4.79189 11.9008 4.85C11.9588 4.90811 12.0048 4.97707 12.0362 5.05296C12.0675 5.12884 12.0836 5.21015 12.0835 5.29226C12.0835 5.37436 12.0672 5.45564 12.0357 5.53146C12.0042 5.60729 11.9581 5.67617 11.9 5.73417M15 10.0833C15 10.6359 14.7805 11.1658 14.3898 11.5565C13.9991 11.9472 13.4692 12.1667 12.9167 12.1667C12.3641 12.1667 11.8342 11.9472 11.4435 11.5565C11.0528 11.1658 10.8333 10.6359 10.8333 10.0833C10.8333 9.5308 11.0528 9.00089 11.4435 8.61019C11.8342 8.21949 12.3641 8 12.9167 8C13.4692 8 13.9991 8.21949 14.3898 8.61019C14.7805 9.00089 15 9.5308 15 10.0833ZM16.6667 14.5625C16.6667 15.8592 15.595 17.1667 12.9167 17.1667C10.2383 17.1667 9.16667 15.8642 9.16667 14.5625V14.4767C9.16667 13.66 9.82833 13 10.6442 13H15.1892C16.0058 13 16.6667 13.6608 16.6667 14.4767V14.5625Z" fill="white"/>
</svg>
