<svg width="16" height="12" viewBox="0 0 16 12" fill="none" xmlns="http://www.w3.org/2000/svg">
<path d="M2.6665 11.3332C2.11095 11.3332 1.63873 11.1387 1.24984 10.7498C0.860948 10.3609 0.666504 9.88873 0.666504 9.33317V5.99984C0.666504 5.63317 0.797171 5.31939 1.0585 5.0585C1.31984 4.79762 1.63362 4.66695 1.99984 4.6665C2.36606 4.66606 2.68006 4.79673 2.94184 5.0585C3.20362 5.32028 3.33406 5.63406 3.33317 5.99984V8.6665H12.6665V5.99984C12.6665 5.63317 12.7972 5.31939 13.0585 5.0585C13.3198 4.79762 13.6336 4.66695 13.9998 4.6665C14.3661 4.66606 14.6801 4.79673 14.9418 5.0585C15.2036 5.32028 15.3341 5.63406 15.3332 5.99984V9.33317C15.3332 9.88873 15.1387 10.3609 14.7498 10.7498C14.3609 11.1387 13.8887 11.3332 13.3332 11.3332H2.6665ZM4.6665 7.33317V5.99984C4.6665 5.41095 4.47495 4.89428 4.09184 4.44984C3.70873 4.00539 3.23362 3.69984 2.6665 3.53317V2.6665C2.6665 2.11095 2.86095 1.63873 3.24984 1.24984C3.63873 0.860948 4.11095 0.666504 4.6665 0.666504H11.3332C11.8887 0.666504 12.3609 0.860948 12.7498 1.24984C13.1387 1.63873 13.3332 2.11095 13.3332 2.6665V3.53317C12.7443 3.65539 12.2638 3.94717 11.8918 4.4085C11.5198 4.86984 11.3336 5.40028 11.3332 5.99984V7.33317H4.6665Z" fill="#274373"/>
</svg>
