<svg width="12" height="12" viewBox="0 0 12 12" fill="none" xmlns="http://www.w3.org/2000/svg">
<path d="M1.07733 11.3332C0.770222 11.3332 0.514 11.2305 0.308667 11.0252C0.103333 10.8198 0.000444444 10.5634 0 10.2558V3.74384C0 3.43673 0.102889 3.18051 0.308667 2.97517C0.514445 2.76984 0.770444 2.66695 1.07667 2.66651H4V1.74317C4 1.43651 4.10289 1.18028 4.30867 0.974505C4.51444 0.768727 4.77067 0.666061 5.07733 0.666505H6.92333C7.23 0.666505 7.48622 0.769172 7.692 0.974505C7.89778 1.17984 8.00044 1.43606 8 1.74317V2.66651H10.9233C11.23 2.66651 11.486 2.76939 11.6913 2.97517C11.8967 3.18095 11.9996 3.43717 12 3.74384V10.2565C12 10.5632 11.8971 10.8194 11.6913 11.0252C11.4856 11.2309 11.2296 11.3336 10.9233 11.3332H1.07733ZM4.66667 2.66651H7.33333V1.74317C7.33333 1.64095 7.29067 1.54695 7.20533 1.46117C7.12 1.37539 7.026 1.33273 6.92333 1.33317H5.07667C4.97444 1.33317 4.88045 1.37584 4.79467 1.46117C4.70889 1.54651 4.66622 1.64051 4.66667 1.74317V2.66651Z" fill="#274373"/>
</svg>
