<svg width="14" height="14" viewBox="0 0 14 14" fill="none" xmlns="http://www.w3.org/2000/svg">
<path d="M9.33325 6.00008C10.9999 6.00008 12.3333 7.33342 12.3333 9.00008C12.3333 9.58675 12.1666 10.1401 11.8733 10.6001L13.9266 12.6667L12.9999 13.5934L10.9199 11.5467C10.4599 11.8334 9.91325 12.0001 9.33325 12.0001C7.66659 12.0001 6.33325 10.6667 6.33325 9.00008C6.33325 7.33342 7.66659 6.00008 9.33325 6.00008ZM9.33325 7.33342C8.89122 7.33342 8.4673 7.50901 8.15474 7.82157C7.84218 8.13413 7.66659 8.55805 7.66659 9.00008C7.66659 9.44211 7.84218 9.86603 8.15474 10.1786C8.4673 10.4912 8.89122 10.6667 9.33325 10.6667C9.77528 10.6667 10.1992 10.4912 10.5118 10.1786C10.8243 9.86603 10.9999 9.44211 10.9999 9.00008C10.9999 8.55805 10.8243 8.13413 10.5118 7.82157C10.1992 7.50901 9.77528 7.33342 9.33325 7.33342ZM5.66659 0.666748C6.37383 0.666748 7.05211 0.9477 7.5522 1.4478C8.0523 1.94789 8.33325 2.62617 8.33325 3.33341C8.33325 3.94008 8.12659 4.50008 7.78659 4.95341C7.21325 5.16675 6.69992 5.50675 6.27325 5.93341L5.66659 6.00008C4.95934 6.00008 4.28106 5.71913 3.78097 5.21903C3.28087 4.71894 2.99992 4.04066 2.99992 3.33341C2.99992 2.62617 3.28087 1.94789 3.78097 1.4478C4.28106 0.9477 4.95934 0.666748 5.66659 0.666748ZM0.333252 11.3334V10.0001C0.333252 8.58675 2.53992 7.42675 5.33325 7.33342C5.11992 7.85342 4.99992 8.41341 4.99992 9.00008C4.99992 9.86008 5.25325 10.6667 5.66659 11.3334H0.333252Z" fill="#274373"/>
</svg>
