<svg width="12" height="12" viewBox="0 0 12 12" fill="none" xmlns="http://www.w3.org/2000/svg">
<path d="M0 2.5C0 1.83696 0.263392 1.20107 0.732233 0.732233C1.20107 0.263392 1.83696 0 2.5 0H9.5C10.163 0 10.7989 0.263392 11.2678 0.732233C11.7366 1.20107 12 1.83696 12 2.5V9.5C12 10.163 11.7366 10.7989 11.2678 11.2678C10.7989 11.7366 10.163 12 9.5 12H2.5C1.83696 12 1.20107 11.7366 0.732233 11.2678C0.263392 10.7989 0 10.163 0 9.5V2.5ZM6.5 8.5C6.5 8.63261 6.55268 8.75979 6.64645 8.85355C6.74021 8.94732 6.86739 9 7 9H9.25C9.38261 9 9.50979 8.94732 9.60355 8.85355C9.69732 8.75979 9.75 8.63261 9.75 8.5C9.75 8.36739 9.69732 8.24021 9.60355 8.14645C9.50979 8.05268 9.38261 8 9.25 8H7C6.86739 8 6.74021 8.05268 6.64645 8.14645C6.55268 8.24021 6.5 8.36739 6.5 8.5ZM7 4C6.86739 4 6.74021 4.05268 6.64645 4.14645C6.55268 4.24021 6.5 4.36739 6.5 4.5C6.5 4.63261 6.55268 4.75979 6.64645 4.85355C6.74021 4.94732 6.86739 5 7 5H9.25C9.38261 5 9.50979 4.94732 9.60355 4.85355C9.69732 4.75979 9.75 4.63261 9.75 4.5C9.75 4.36739 9.69732 4.24021 9.60355 4.14645C9.50979 4.05268 9.38261 4 9.25 4H7ZM5.354 7.146C5.30755 7.09944 5.25238 7.06249 5.19163 7.03729C5.13089 7.01208 5.06577 6.99911 5 6.99911C4.93423 6.99911 4.86911 7.01208 4.80837 7.03729C4.74762 7.06249 4.69245 7.09944 4.646 7.146L3.5 8.293L3.106 7.898C3.01225 7.80411 2.88504 7.75132 2.75235 7.75122C2.61967 7.75113 2.49239 7.80375 2.3985 7.8975C2.30461 7.99125 2.25182 8.11846 2.25172 8.25115C2.25163 8.38383 2.30425 8.51111 2.398 8.605L3.146 9.354C3.19245 9.40056 3.24762 9.43751 3.30837 9.46271C3.36911 9.48792 3.43423 9.50089 3.5 9.50089C3.56577 9.50089 3.63089 9.48792 3.69163 9.46271C3.75238 9.43751 3.80755 9.40056 3.854 9.354L5.354 7.854C5.40056 7.80755 5.43751 7.75238 5.46271 7.69163C5.48792 7.63089 5.50089 7.56577 5.50089 7.5C5.50089 7.43423 5.48792 7.36911 5.46271 7.30837C5.43751 7.24762 5.40056 7.19245 5.354 7.146ZM5.354 3.854C5.40049 3.80751 5.43736 3.75232 5.46252 3.69158C5.48768 3.63084 5.50063 3.56574 5.50063 3.5C5.50063 3.43426 5.48768 3.36916 5.46252 3.30842C5.43736 3.24768 5.40049 3.19249 5.354 3.146C5.30751 3.09951 5.25232 3.06264 5.19158 3.03748C5.13084 3.01232 5.06574 2.99937 5 2.99937C4.93426 2.99937 4.86916 3.01232 4.80842 3.03748C4.74768 3.06264 4.69249 3.09951 4.646 3.146L3.5 4.293L3.106 3.898C3.01211 3.80411 2.88478 3.75137 2.752 3.75137C2.61922 3.75137 2.49189 3.80411 2.398 3.898C2.30411 3.99189 2.25137 4.11922 2.25137 4.252C2.25137 4.38478 2.30411 4.51211 2.398 4.606L3.146 5.354C3.19245 5.40056 3.24762 5.43751 3.30837 5.46271C3.36911 5.48792 3.43423 5.50089 3.5 5.50089C3.56577 5.50089 3.63089 5.48792 3.69163 5.46271C3.75238 5.43751 3.80755 5.40056 3.854 5.354L5.354 3.854Z" fill="#274373"/>
</svg>
