<svg width="14" height="16" viewBox="0 0 14 16" fill="none" xmlns="http://www.w3.org/2000/svg">
<path d="M12.992 15.4859H1C0.867392 15.4859 0.740215 15.4333 0.646447 15.3395C0.552678 15.2457 0.5 15.1186 0.5 14.9859C0.5 13.4559 1.7085 10.8609 3.9895 9.54595C3.74698 9.20339 3.59775 8.80363 3.5565 8.38595L3.48 7.36995C3.28832 7.23997 3.13113 7.06531 3.02199 6.86105C2.91285 6.65678 2.85502 6.42904 2.8535 6.19745C2.8535 5.84345 2.987 5.50245 3.2275 5.24245L3.1275 4.71745C2.99993 4.63009 2.90677 4.50103 2.864 4.35245L2.5425 3.17695C2.4532 2.84912 2.49217 2.49958 2.65147 2.19946C2.81077 1.89934 3.07844 1.6712 3.4 1.56145L5.8935 0.711449C6.70585 0.428215 7.59015 0.428215 8.4025 0.711449L10.8725 1.56145H10.875C11.1973 1.67222 11.4645 1.90282 11.6213 2.20539C11.7781 2.50797 11.8123 2.85928 11.717 3.18645L11.3995 4.34645C11.3742 4.43505 11.3311 4.51756 11.2728 4.58892C11.2145 4.66028 11.1423 4.71899 11.0605 4.76145L10.9935 5.11945C11.1738 5.27059 11.3134 5.46438 11.3997 5.68322C11.486 5.90206 11.5163 6.13899 11.4877 6.3725C11.4591 6.606 11.3727 6.82866 11.2361 7.02023C11.0996 7.21181 10.9174 7.36623 10.706 7.46945L10.638 8.37445C10.5947 8.8179 10.4311 9.24111 10.165 9.59845C12.507 11.0034 13.492 13.7224 13.492 14.9884C13.4913 15.1206 13.4384 15.2472 13.3447 15.3404C13.251 15.4336 13.1242 15.486 12.992 15.4859ZM7.1415 11.7324L6.514 12.1464L6.787 12.6249L6.376 14.4859H7.854L7.498 12.6344L7.776 12.1469L7.1415 11.7324ZM5.81 11.6709C5.845 11.8059 6.035 11.8634 6.165 11.7774L6.975 11.2434C6.68335 11.2088 6.40906 11.0865 6.18838 10.8927C5.9677 10.6989 5.81101 10.4427 5.739 10.1579L5.449 10.0229L5.691 11.1859L5.81 11.6709ZM8.555 10.1554C8.48206 10.4419 8.3238 10.6994 8.10119 10.8939C7.87859 11.0884 7.60215 11.2106 7.3085 11.2444L8.125 11.7774C8.255 11.8634 8.445 11.8064 8.48 11.6709L8.599 11.1859L8.8415 10.0224L8.555 10.1554ZM10.2425 6.58145C10.3166 6.54773 10.3796 6.49383 10.4245 6.42591C10.4693 6.35799 10.4941 6.27881 10.496 6.19745C10.4948 6.12583 10.4756 6.05566 10.4401 5.99343C10.4046 5.93121 10.354 5.87894 10.293 5.84145L10.2425 6.58145ZM8.189 5.48995H6.0965C6.3345 5.59145 6.5135 5.80595 6.5595 6.06595C6.5745 6.14595 6.5095 6.22095 6.4295 6.22095H6.3945C6.4045 6.17595 6.4145 6.13095 6.4145 6.08595C6.4095 5.81095 6.1845 5.58095 5.9045 5.58095C5.8267 5.58089 5.74994 5.59887 5.68025 5.63347C5.61057 5.66806 5.54984 5.71834 5.50285 5.78035C5.45586 5.84235 5.42388 5.91441 5.40942 5.99086C5.39496 6.0673 5.39841 6.14606 5.4195 6.22095H5.1645C5.0645 6.22095 4.9895 6.12595 5.0145 6.02595C5.0845 5.75995 5.2845 5.54695 5.543 5.46395C5.46951 5.45316 5.39659 5.43881 5.3245 5.42095C5.01574 5.35061 4.72019 5.23145 4.449 5.06795L4.6535 8.06645C4.7385 8.95395 5.417 9.57145 6.2345 9.57145H8.0595C8.8715 9.57145 9.5505 8.95945 9.64 8.06545L9.846 5.04595C9.60468 5.20095 9.34116 5.31829 9.0645 5.39395C8.9605 5.42495 8.853 5.44895 8.743 5.46445C9.0005 5.54795 9.2005 5.76045 9.2695 6.02645C9.2945 6.12645 9.2195 6.22145 9.1195 6.22145H8.8645C8.88559 6.14656 8.88904 6.0678 8.87458 5.99136C8.86012 5.91491 8.82814 5.84285 8.78115 5.78085C8.73415 5.71884 8.67343 5.66856 8.60375 5.63397C8.53406 5.59937 8.4573 5.58139 8.3795 5.58145C8.0995 5.58145 7.8745 5.81145 7.8745 6.09145C7.8745 6.13645 7.8795 6.18145 7.8895 6.22145H7.8545C7.7745 6.22145 7.7095 6.14645 7.7245 6.06645C7.7745 5.80595 7.952 5.59145 8.189 5.48995ZM10.098 4.26095H10.114C10.1267 4.2424 10.1379 4.22283 10.1475 4.20245C10.1545 4.17677 10.1635 4.15169 10.1745 4.12745C10.2265 3.90745 10.1115 3.67845 9.917 3.62345C8.11102 3.09436 6.19143 3.09262 4.3845 3.61845C4.1895 3.67345 4.074 3.90345 4.1315 4.12345C4.14383 4.17183 4.16483 4.21757 4.1935 4.25845C6.12893 3.74995 8.163 3.75081 10.098 4.26095ZM4.003 5.88195C3.95648 5.92095 3.91897 5.96957 3.89308 6.02448C3.86718 6.07938 3.85351 6.13925 3.853 6.19995C3.85386 6.27023 3.87218 6.33919 3.9063 6.40064C3.94043 6.46208 3.98929 6.51408 4.0485 6.55195L4.003 5.88195ZM6.457 10.2529C6.5085 10.4224 6.7255 10.6429 7.125 10.6509H7.158C7.556 10.6459 7.778 10.4274 7.8345 10.2544C7.78788 10.2571 7.74119 10.2584 7.6945 10.2584H6.6245C6.568 10.2584 6.5125 10.2564 6.457 10.2529ZM9.3595 14.0334C9.7345 14.0334 10.0445 13.7234 10.0495 13.3434V12.5034C10.0495 12.3384 9.9145 12.2034 9.7495 12.2034H8.9745C8.8095 12.2034 8.6745 12.3384 8.6745 12.5034V13.3484C8.6745 13.7284 8.9795 14.0334 9.3595 14.0334ZM5.7145 12.9984H3.8645C3.8245 12.9984 3.7945 13.0284 3.7945 13.0684V13.5084C3.7945 13.5484 3.8245 13.5784 3.8645 13.5784H5.7145C5.7545 13.5784 5.7845 13.5484 5.7845 13.5084V13.0684C5.7845 13.0284 5.7545 12.9984 5.7145 12.9984ZM7.7495 1.83845C7.7495 1.72845 7.6095 1.68845 7.5495 1.77845C7.5045 1.84345 7.4095 1.84345 7.3695 1.77845L7.2595 1.61345C7.2145 1.54845 7.1195 1.54845 7.0795 1.61345L6.9695 1.78345C6.9245 1.84845 6.8295 1.84845 6.7895 1.78345C6.7295 1.69345 6.5895 1.73345 6.5895 1.84345V2.26345C6.5895 2.58845 6.8495 2.84845 7.1745 2.84845C7.4995 2.84845 7.7595 2.58845 7.7595 2.26345V2.04345C7.7495 2.03345 7.7495 2.01845 7.7495 2.00845V1.83845Z" fill="#274373"/>
</svg>
