<svg width="29" height="28" viewBox="0 0 29 28" fill="none" xmlns="http://www.w3.org/2000/svg">
<path d="M5.07624 11.6665L4.25141 12.4913L3.42657 11.6665L4.25141 10.8416L5.07624 11.6665ZM24.9096 20.9998C24.9096 21.3092 24.7867 21.606 24.5679 21.8248C24.3491 22.0436 24.0523 22.1665 23.7429 22.1665C23.4335 22.1665 23.1367 22.0436 22.9179 21.8248C22.6992 21.606 22.5762 21.3092 22.5762 20.9998H24.9096ZM10.0847 18.3246L4.25141 12.4913L5.90107 10.8416L11.7344 16.675L10.0847 18.3246ZM4.25141 10.8416L10.0847 5.0083L11.7344 6.65797L5.90107 12.4913L4.25141 10.8416ZM5.07624 10.4998H16.7429V12.8331H5.07624V10.4998ZM24.9096 18.6665V20.9998H22.5762V18.6665H24.9096ZM16.7429 10.4998C18.9088 10.4998 20.9861 11.3602 22.5176 12.8918C24.0492 14.4233 24.9096 16.5005 24.9096 18.6665H22.5762C22.5762 17.1194 21.9617 15.6356 20.8677 14.5417C19.7737 13.4477 18.29 12.8331 16.7429 12.8331V10.4998Z" fill="#274373"/>
</svg>
