<svg width="22" height="20" viewBox="0 0 22 20" fill="none" xmlns="http://www.w3.org/2000/svg">
<path d="M5.0035 2.94153V4.0001H4.14293C3.23361 4.0001 2.36154 4.36133 1.71856 5.00431C1.07558 5.64729 0.714355 6.51936 0.714355 7.42867V13.4287C0.714355 14.1107 0.985273 14.7647 1.46751 15.2469C1.94975 15.7292 2.6038 16.0001 3.28578 16.0001H5.00007V16.8572C5.00007 17.5392 5.27099 18.1933 5.75322 18.6755C6.23546 19.1578 6.88951 19.4287 7.5715 19.4287H14.4286C15.1106 19.4287 15.7647 19.1578 16.2469 18.6755C16.7292 18.1933 17.0001 17.5392 17.0001 16.8572V16.0001H18.7144C19.3963 16.0001 20.0504 15.7292 20.5326 15.2469C21.0149 14.7647 21.2858 14.1107 21.2858 13.4287V7.42867C21.2858 6.51936 20.9246 5.64729 20.2816 5.00431C19.6386 4.36133 18.7665 4.0001 17.8572 4.0001H17.0001V2.93039C17.0001 2.62055 16.939 2.31376 16.8203 2.02755C16.7016 1.74135 16.5277 1.48135 16.3085 1.26242C16.0892 1.0435 15.829 0.869942 15.5426 0.751686C15.2562 0.633431 14.9493 0.572794 14.6395 0.573245L7.35721 0.584388C6.73265 0.585296 6.13399 0.834038 5.69268 1.27599C5.25137 1.71794 5.0035 2.31697 5.0035 2.94153ZM15.7144 2.93039V4.0001H6.28921V2.94153C6.28921 2.3501 6.7675 1.87096 7.35893 1.8701L14.6412 1.85896C14.7821 1.85873 14.9216 1.88628 15.0518 1.94002C15.1819 1.99377 15.3003 2.07265 15.3999 2.17217C15.4996 2.27168 15.5787 2.38987 15.6326 2.51997C15.6866 2.65008 15.7144 2.78954 15.7144 2.93039ZM7.5715 11.2858H14.4286C14.7696 11.2858 15.0967 11.4213 15.3378 11.6624C15.5789 11.9035 15.7144 12.2305 15.7144 12.5715V16.8572C15.7144 17.1982 15.5789 17.5253 15.3378 17.7664C15.0967 18.0075 14.7696 18.143 14.4286 18.143H7.5715C7.23051 18.143 6.90348 18.0075 6.66236 17.7664C6.42124 17.5253 6.28578 17.1982 6.28578 16.8572V12.5715C6.28578 12.2305 6.42124 11.9035 6.66236 11.6624C6.90348 11.4213 7.23051 11.2858 7.5715 11.2858Z" fill="white"/>
</svg>
