<svg width="29" height="28" viewBox="0 0 29 28" fill="none" xmlns="http://www.w3.org/2000/svg">
<path d="M5.01232 23.8982C3.67517 22.6067 2.60862 21.0619 1.8749 19.3538C1.14117 17.6458 0.754963 15.8087 0.73881 13.9498C0.722656 12.0909 1.07688 10.2474 1.78081 8.5268C2.48475 6.80625 3.52429 5.24313 4.83879 3.92863C6.15328 2.61413 7.71641 1.57459 9.43696 0.870656C11.1575 0.166724 13.001 -0.1875 14.8599 -0.171346C16.7188 -0.155193 18.5559 0.231014 20.264 0.96474C21.972 1.69847 23.5169 2.76502 24.8083 4.10216C27.3585 6.74259 28.7696 10.279 28.7378 13.9498C28.7059 17.6205 27.2335 21.1319 24.6378 23.7276C22.0421 26.3233 18.5307 27.7957 14.8599 27.8276C11.1892 27.8595 7.65275 26.4484 5.01232 23.8982ZM16.8703 14.0002L20.8323 10.0382L18.8583 8.06416L14.9103 12.0262L10.9483 8.06416L8.97432 10.0382L12.9363 14.0002L8.97432 17.9622L10.9483 19.9362L14.9103 15.9742L18.8723 19.9362L20.8463 17.9622L16.8843 14.0002H16.8703Z" fill="#FF3B30"/>
</svg>
