<svg width="48" height="48" viewBox="0 0 48 48" fill="none" xmlns="http://www.w3.org/2000/svg">
<path d="M35.5 4.00195C36.6403 4.00181 37.738 4.43454 38.5715 5.21269C39.405 5.99084 39.912 7.05637 39.99 8.19395L40 8.49995V28.756C39.7587 28.916 39.5313 29.1026 39.318 29.316L32.5 36.132L30.684 34.312C29.8857 33.511 28.814 33.0416 27.684 32.998H32.5C32.8978 32.998 33.2794 32.8399 33.5607 32.5586C33.842 32.2773 34 31.8958 34 31.498C34 31.1001 33.842 30.7186 33.5607 30.4373C33.2794 30.156 32.8978 29.998 32.5 29.998H22.492C22.0942 29.998 21.7126 30.156 21.4313 30.4373C21.15 30.7186 20.992 31.1001 20.992 31.498C20.992 31.8958 21.15 32.2773 21.4313 32.5586C21.7126 32.8399 22.0942 32.998 22.492 32.998H27.318C26.4443 33.0334 25.5998 33.3226 24.8878 33.8303C24.1758 34.3379 23.6271 35.0421 23.3089 35.8566C22.9906 36.6711 22.9166 37.5606 23.0958 38.4165C23.275 39.2724 23.6997 40.0576 24.318 40.676L27.636 43.996H12.5C11.3597 43.9961 10.262 43.5634 9.42849 42.7852C8.59503 42.0071 8.08804 40.9415 8.01 39.804L8 39.5V8.50195C7.99986 7.3617 8.43259 6.26391 9.21074 5.43045C9.98889 4.59698 11.0544 4.09 12.192 4.01195L12.5 4.00195H35.5ZM18 15.502C18 14.9715 17.7893 14.4628 17.4142 14.0877C17.0391 13.7127 16.5304 13.502 16 13.502C15.4696 13.502 14.9609 13.7127 14.5858 14.0877C14.2107 14.4628 14 14.9715 14 15.502C14 16.0324 14.2107 16.5411 14.5858 16.9162C14.9609 17.2912 15.4696 17.502 16 17.502C16.5304 17.502 17.0391 17.2912 17.4142 16.9162C17.7893 16.5411 18 16.0324 18 15.502ZM22.492 14C22.0942 14 21.7126 14.158 21.4313 14.4393C21.15 14.7206 20.992 15.1021 20.992 15.5C20.992 15.8978 21.15 16.2793 21.4313 16.5606C21.7126 16.8419 22.0942 17 22.492 17H32.5C32.8978 17 33.2794 16.8419 33.5607 16.5606C33.842 16.2793 34 15.8978 34 15.5C34 15.1021 33.842 14.7206 33.5607 14.4393C33.2794 14.158 32.8978 14 32.5 14H22.492ZM20.992 23.5C20.992 24.328 21.664 25 22.492 25H32.5C32.697 25 32.892 24.9612 33.074 24.8858C33.256 24.8104 33.4214 24.6999 33.5607 24.5606C33.6999 24.4213 33.8104 24.256 33.8858 24.074C33.9612 23.892 34 23.6969 34 23.5C34 23.303 33.9612 23.1079 33.8858 22.9259C33.8104 22.7439 33.6999 22.5786 33.5607 22.4393C33.4214 22.3 33.256 22.1895 33.074 22.1141C32.892 22.0388 32.697 22 32.5 22H22.492C22.0942 22 21.7126 22.158 21.4313 22.4393C21.15 22.7206 20.992 23.1021 20.992 23.5ZM18 23.5C18 22.9695 17.7893 22.4608 17.4142 22.0857C17.0391 21.7107 16.5304 21.5 16 21.5C15.4696 21.5 14.9609 21.7107 14.5858 22.0857C14.2107 22.4608 14 22.9695 14 23.5C14 24.0304 14.2107 24.5391 14.5858 24.9142C14.9609 25.2892 15.4696 25.5 16 25.5C16.5304 25.5 17.0391 25.2892 17.4142 24.9142C17.7893 24.5391 18 24.0304 18 23.5ZM18 31.496C18 30.9655 17.7893 30.4568 17.4142 30.0817C17.0391 29.7067 16.5304 29.496 16 29.496C15.4696 29.496 14.9609 29.7067 14.5858 30.0817C14.2107 30.4568 14 30.9655 14 31.496C14 32.0264 14.2107 32.5351 14.5858 32.9102C14.9609 33.2852 15.4696 33.496 16 33.496C16.5304 33.496 17.0391 33.2852 17.4142 32.9102C17.7893 32.5351 18 32.0264 18 31.496ZM32.5 40.378L41.44 31.438C41.5784 31.2948 41.744 31.1806 41.9271 31.102C42.1101 31.0235 42.3069 30.9822 42.5061 30.9806C42.7053 30.979 42.9028 31.017 43.0871 31.0925C43.2714 31.168 43.4388 31.2795 43.5796 31.4204C43.7204 31.5613 43.8317 31.7288 43.907 31.9132C43.9823 32.0976 44.0202 32.2951 44.0184 32.4943C44.0165 32.6934 43.9751 32.8903 43.8964 33.0732C43.8177 33.2562 43.7033 33.4217 43.56 33.56L33.56 43.56L33.458 43.654C33.1702 43.893 32.8035 44.0159 32.4298 43.9985C32.0561 43.9811 31.7023 43.8247 31.438 43.56L26.438 38.558C26.1569 38.2763 25.9991 37.8945 25.9995 37.4965C25.9999 37.0986 26.1583 36.7171 26.44 36.436C26.7217 36.1548 27.1035 35.9971 27.5014 35.9975C27.8994 35.9979 28.2809 36.1563 28.562 36.438L32.5 40.378Z" fill="#274373"/>
</svg>
