<svg width="12" height="14" viewBox="0 0 12 14" fill="none" xmlns="http://www.w3.org/2000/svg">
<path fill-rule="evenodd" clip-rule="evenodd" d="M2.94384 1.00016C2.76062 1.42079 2.6662 1.8747 2.6665 2.3335C2.6665 2.68712 2.80698 3.02626 3.05703 3.2763C3.30708 3.52635 3.64622 3.66683 3.99984 3.66683H7.99984C8.35346 3.66683 8.6926 3.52635 8.94265 3.2763C9.19269 3.02626 9.33317 2.68712 9.33317 2.3335C9.33317 1.8595 9.2345 1.40816 9.05584 1.00016H9.99984C10.3535 1.00016 10.6926 1.14064 10.9426 1.39069C11.1927 1.64074 11.3332 1.97987 11.3332 2.3335V12.3335C11.3332 12.6871 11.1927 13.0263 10.9426 13.2763C10.6926 13.5264 10.3535 13.6668 9.99984 13.6668H1.99984C1.64622 13.6668 1.30708 13.5264 1.05703 13.2763C0.80698 13.0263 0.666504 12.6871 0.666504 12.3335V2.3335C0.666504 1.97987 0.80698 1.64074 1.05703 1.39069C1.30708 1.14064 1.64622 1.00016 1.99984 1.00016H2.94384ZM5.99984 8.3335H3.99984C3.82303 8.3335 3.65346 8.40373 3.52843 8.52876C3.40341 8.65378 3.33317 8.82335 3.33317 9.00016C3.33317 9.17697 3.40341 9.34654 3.52843 9.47157C3.65346 9.59659 3.82303 9.66683 3.99984 9.66683H5.99984C6.17665 9.66683 6.34622 9.59659 6.47124 9.47157C6.59627 9.34654 6.6665 9.17697 6.6665 9.00016C6.6665 8.82335 6.59627 8.65378 6.47124 8.52876C6.34622 8.40373 6.17665 8.3335 5.99984 8.3335ZM7.99984 5.66683H3.99984C3.82992 5.66702 3.66648 5.73208 3.54292 5.84873C3.41937 5.96537 3.34501 6.1248 3.33506 6.29443C3.3251 6.46405 3.38029 6.63108 3.48935 6.76138C3.59841 6.89169 3.75311 6.97543 3.92184 6.9955L3.99984 7.00016H7.99984C8.17665 7.00016 8.34622 6.92992 8.47124 6.8049C8.59627 6.67988 8.6665 6.51031 8.6665 6.3335C8.6665 6.15668 8.59627 5.98712 8.47124 5.86209C8.34622 5.73707 8.17665 5.66683 7.99984 5.66683ZM5.99984 0.333496C6.28122 0.333502 6.55944 0.392885 6.81631 0.507764C7.07318 0.622642 7.30291 0.79043 7.4905 1.00016C7.77584 1.31883 7.95984 1.72883 7.99384 2.1815L7.99984 2.3335H3.99984C3.99984 1.85016 4.17117 1.40683 4.4565 1.0615L4.50917 1.00016C4.87584 0.590829 5.40784 0.333496 5.99984 0.333496Z" fill="#274373"/>
</svg>
