<svg width="25" height="21" viewBox="0 0 25 21" fill="none" xmlns="http://www.w3.org/2000/svg">
<path d="M0.789063 5.50016C0.789063 3.29983 0.789062 2.20083 1.47273 1.51716C2.1564 0.833496 3.2554 0.833496 5.45573 0.833496H19.4557C21.6561 0.833496 22.7551 0.833496 23.4387 1.51716C24.1224 2.20083 24.1224 3.29983 24.1224 5.50016C24.1224 6.04966 24.1224 6.325 23.9521 6.4965C23.7806 6.66683 23.5041 6.66683 22.9557 6.66683H1.95573C1.40623 6.66683 1.1309 6.66683 0.959396 6.4965C0.789062 6.325 0.789063 6.0485 0.789063 5.50016ZM0.789063 16.0002C0.789063 18.2005 0.789062 19.2995 1.47273 19.9832C2.1564 20.6668 3.2554 20.6668 5.45573 20.6668H19.4557C21.6561 20.6668 22.7551 20.6668 23.4387 19.9832C24.1224 19.2995 24.1224 18.2005 24.1224 16.0002V10.1668C24.1224 9.61733 24.1224 9.342 23.9521 9.1705C23.7806 9.00016 23.5041 9.00016 22.9557 9.00016H1.95573C1.40623 9.00016 1.1309 9.00016 0.959396 9.1705C0.789062 9.342 0.789063 9.6185 0.789063 10.1668V16.0002Z" fill="#274373"/>
</svg>
