<svg width="29" height="28" viewBox="0 0 29 28" fill="none" xmlns="http://www.w3.org/2000/svg">
<g clip-path="url(#clip0_195_7577)">
<path d="M15.8097 12.6V7H13.0097V12.6H7.40967V15.4H13.0097V21H15.8097V15.4H21.4097V12.6H15.8097ZM14.4097 28C10.6966 28 7.13568 26.525 4.51017 23.8995C1.88466 21.274 0.409668 17.713 0.409668 14C0.409668 10.287 1.88466 6.72601 4.51017 4.1005C7.13568 1.475 10.6966 0 14.4097 0C18.1227 0 21.6837 1.475 24.3092 4.1005C26.9347 6.72601 28.4097 10.287 28.4097 14C28.4097 17.713 26.9347 21.274 24.3092 23.8995C21.6837 26.525 18.1227 28 14.4097 28Z" fill="white"/>
</g>
<defs>
<clipPath id="clip0_195_7577">
<rect width="28" height="28" fill="white" transform="translate(0.409668)"/>
</clipPath>
</defs>
</svg>
