<svg width="28" height="28" viewBox="0 0 28 28" fill="none" xmlns="http://www.w3.org/2000/svg">
<path fill-rule="evenodd" clip-rule="evenodd" d="M4.375 3.93747H12.6875C12.9291 3.93747 13.125 4.13333 13.125 4.37497V12.6875C13.125 12.9291 12.9291 13.125 12.6875 13.125H4.375C4.13336 13.125 3.9375 12.9291 3.9375 12.6875V4.37497C3.9375 4.13333 4.13336 3.93747 4.375 3.93747ZM19.8055 3.24477L24.7552 8.19454C24.926 8.36538 24.926 8.64237 24.7552 8.81324L19.8054 13.763C19.6346 13.9338 19.3576 13.9338 19.1867 13.763L14.237 8.81322C14.0661 8.64237 14.0661 8.36538 14.237 8.19451L19.1868 3.24477C19.3576 3.07393 19.6346 3.07393 19.8055 3.24477ZM4.375 14.875H12.6875C12.9291 14.875 13.125 15.0708 13.125 15.3125V23.625C13.125 23.8666 12.9291 24.0625 12.6875 24.0625H4.375C4.13336 24.0625 3.9375 23.8666 3.9375 23.625V15.3125C3.9375 15.0708 4.13336 14.875 4.375 14.875ZM15.3125 14.875H23.625C23.8666 14.875 24.0625 15.0708 24.0625 15.3125V23.625C24.0625 23.8666 23.8666 24.0625 23.625 24.0625H15.3125C15.0709 24.0625 14.875 23.8666 14.875 23.625V15.3125C14.875 15.0708 15.0709 14.875 15.3125 14.875Z" fill="#0D992C"/>
<g clip-path="url(#clip0_391_3516)">
<path fill-rule="evenodd" clip-rule="evenodd" d="M17 20C17 19.2044 17.3161 18.4413 17.8787 17.8787C18.4413 17.3161 19.2044 17 20 17C20.7956 17 21.5587 17.3161 22.1213 17.8787C22.6839 18.4413 23 19.2044 23 20C23 20.7956 22.6839 21.5587 22.1213 22.1213C21.5587 22.6839 20.7956 23 20 23C19.2044 23 18.4413 22.6839 17.8787 22.1213C17.3161 21.5587 17 20.7956 17 20ZM20 21.6071C19.9148 21.6071 19.833 21.5733 19.7727 21.513C19.7124 21.4527 19.6786 21.371 19.6786 21.2857V20.3214H18.7143C18.629 20.3214 18.5473 20.2876 18.487 20.2273C18.4267 20.167 18.3929 20.0852 18.3929 20C18.3929 19.9148 18.4267 19.833 18.487 19.7727C18.5473 19.7124 18.629 19.6786 18.7143 19.6786H19.6786V18.7143C19.6786 18.629 19.7124 18.5473 19.7727 18.487C19.833 18.4267 19.9148 18.3929 20 18.3929C20.0852 18.3929 20.167 18.4267 20.2273 18.487C20.2876 18.5473 20.3214 18.629 20.3214 18.7143V19.6786H21.2857C21.371 19.6786 21.4527 19.7124 21.513 19.7727C21.5733 19.833 21.6071 19.9148 21.6071 20C21.6071 20.0852 21.5733 20.167 21.513 20.2273C21.4527 20.2876 21.371 20.3214 21.2857 20.3214H20.3214V21.2857C20.3214 21.371 20.2876 21.4527 20.2273 21.513C20.167 21.5733 20.0852 21.6071 20 21.6071Z" fill="white"/>
</g>
<defs>
<clipPath id="clip0_391_3516">
<rect width="6" height="6" fill="white" transform="matrix(-1 0 0 -1 23 23)"/>
</clipPath>
</defs>
</svg>
