<svg width="28" height="28" viewBox="0 0 28 28" fill="none" xmlns="http://www.w3.org/2000/svg">
<g clip-path="url(#clip0_366_3608)">
<path d="M14.5833 13.9416C15.1472 13.3194 15.5801 12.6097 15.8818 11.8125C16.1836 11.0152 16.3341 10.1888 16.3333 9.33329C16.3326 8.47774 16.1821 7.65135 15.8818 6.85413C15.5816 6.0569 15.1488 5.34718 14.5833 4.72496C15.75 4.88052 16.7222 5.39579 17.5 6.27079C18.2778 7.14579 18.6667 8.16663 18.6667 9.33329C18.6667 10.5 18.2778 11.5208 17.5 12.3958C16.7222 13.2708 15.75 13.7861 14.5833 13.9416ZM20.3583 23.3333C20.5722 22.9833 20.7328 22.6092 20.8402 22.211C20.9475 21.8127 21.0008 21.4091 21 21V19.8333C21 19.1333 20.8444 18.4671 20.5333 17.8348C20.2222 17.2025 19.8139 16.6436 19.3083 16.1583C20.3 16.5083 21.2189 16.9606 22.0652 17.5151C22.9114 18.0697 23.3341 18.8424 23.3333 19.8333V21C23.3333 21.6416 23.1051 22.1911 22.6485 22.6485C22.1919 23.1058 21.6424 23.3341 21 23.3333H20.3583ZM23.3333 12.8333H22.1667C21.8361 12.8333 21.5592 12.7213 21.336 12.4973C21.1128 12.2733 21.0008 11.9964 21 11.6666C20.9992 11.3368 21.1112 11.06 21.336 10.836C21.5608 10.612 21.8377 10.5 22.1667 10.5H23.3333V9.33329C23.3333 9.00274 23.4453 8.72585 23.6693 8.50263C23.8933 8.2794 24.1702 8.1674 24.5 8.16663C24.8298 8.16585 25.1071 8.27785 25.3318 8.50263C25.5566 8.7274 25.6682 9.00429 25.6667 9.33329V10.5H26.8333C27.1639 10.5 27.4412 10.612 27.6652 10.836C27.8892 11.06 28.0008 11.3368 28 11.6666C27.9992 11.9964 27.8872 12.2737 27.664 12.4985C27.4408 12.7232 27.1639 12.8348 26.8333 12.8333H25.6667V14C25.6667 14.3305 25.5547 14.6078 25.3307 14.8318C25.1067 15.0558 24.8298 15.1674 24.5 15.1666C24.1702 15.1658 23.8933 15.0538 23.6693 14.8306C23.4453 14.6074 23.3333 14.3305 23.3333 14V12.8333ZM9.33333 14C8.05 14 6.95139 13.543 6.0375 12.6291C5.12361 11.7152 4.66667 10.6166 4.66667 9.33329C4.66667 8.04996 5.12361 6.95135 6.0375 6.03746C6.95139 5.12357 8.05 4.66663 9.33333 4.66663C10.6167 4.66663 11.7153 5.12357 12.6292 6.03746C13.5431 6.95135 14 8.04996 14 9.33329C14 10.6166 13.5431 11.7152 12.6292 12.6291C11.7153 13.543 10.6167 14 9.33333 14ZM0 21V20.0666C0 19.4055 0.170333 18.7981 0.511 18.2443C0.851667 17.6905 1.30356 17.2674 1.86667 16.975C3.07222 16.3722 4.29722 15.9203 5.54167 15.6193C6.78611 15.3183 8.05 15.1674 9.33333 15.1666C10.6167 15.1658 11.8806 15.3167 13.125 15.6193C14.3694 15.9218 15.5944 16.3737 16.8 16.975C17.3639 17.2666 17.8162 17.6897 18.1568 18.2443C18.4975 18.7988 18.6674 19.4063 18.6667 20.0666V21C18.6667 21.6416 18.4384 22.1911 17.9818 22.6485C17.5253 23.1058 16.9758 23.3341 16.3333 23.3333H2.33333C1.69167 23.3333 1.14256 23.105 0.686 22.6485C0.229444 22.1919 0.000777778 21.6424 0 21Z" fill="#2E673A"/>
</g>
<defs>
<clipPath id="clip0_366_3608">
<rect width="28" height="28" fill="white"/>
</clipPath>
</defs>
</svg>
