<svg width="28" height="18" viewBox="0 0 28 18" fill="none" xmlns="http://www.w3.org/2000/svg">
<path d="M22.1667 14.8333V17.1667H8.16667V14.8333C8.16667 14.8333 8.16667 10.1667 15.1667 10.1667C22.1667 10.1667 22.1667 14.8333 22.1667 14.8333ZM18.6667 4.33334C18.6667 3.64111 18.4614 2.96442 18.0768 2.38885C17.6922 1.81328 17.1456 1.36467 16.5061 1.09977C15.8665 0.83486 15.1628 0.765548 14.4839 0.900597C13.8049 1.03564 13.1813 1.36899 12.6918 1.85847C12.2023 2.34795 11.869 2.9716 11.7339 3.65053C11.5989 4.32946 11.6682 5.0332 11.9331 5.67274C12.198 6.31228 12.6466 6.8589 13.2222 7.24349C13.7977 7.62807 14.4744 7.83334 15.1667 7.83334C16.0949 7.83334 16.9852 7.4646 17.6415 6.80822C18.2979 6.15184 18.6667 5.2616 18.6667 4.33334ZM22.4 10.2367C23.0377 10.825 23.5519 11.5345 23.9124 12.3237C24.273 13.113 24.4727 13.9661 24.5 14.8333V17.1667H28V14.8333C28 14.8333 28 10.8083 22.4 10.2367ZM21 0.833345C20.6475 0.833365 20.2972 0.888475 19.9617 0.996678C20.6442 1.97548 21.0102 3.14006 21.0102 4.33334C21.0102 5.52663 20.6442 6.69121 19.9617 7.67001C20.2972 7.77821 20.6475 7.83332 21 7.83334C21.9283 7.83334 22.8185 7.4646 23.4749 6.80822C24.1313 6.15184 24.5 5.2616 24.5 4.33334C24.5 3.40509 24.1313 2.51485 23.4749 1.85847C22.8185 1.20209 21.9283 0.833345 21 0.833345ZM9.33333 6.66668H5.83333V3.16668H3.5V6.66668H0V9.00001H3.5V12.5H5.83333V9.00001H9.33333V6.66668Z" fill="#0D992C"/>
</svg>
