<svg width="28" height="28" viewBox="0 0 28 28" fill="none" xmlns="http://www.w3.org/2000/svg">
<path d="M23.298 10.1325V9.19914C23.3036 8.76483 23.2206 8.33393 23.0541 7.93276C22.8876 7.53159 22.6411 7.16855 22.3297 6.86581C21.928 6.47424 21.4347 6.18947 20.8947 6.03747V5.60581C20.8999 5.17259 20.8179 4.74276 20.6535 4.3419C20.4892 3.94104 20.2458 3.57734 19.938 3.27247C19.3144 2.66486 18.4753 2.32924 17.6047 2.33914H10.4063C9.54398 2.33601 8.71536 2.67401 8.10122 3.27941C7.48708 3.8848 7.13724 4.70849 7.12801 5.57081V6.00247C6.58803 6.15447 6.0947 6.43924 5.69301 6.83081C5.38366 7.13454 5.13932 7.49802 4.97486 7.89915C4.8104 8.30028 4.72925 8.73067 4.73634 9.16414V10.0975C4.0077 10.5016 3.40053 11.0934 2.97791 11.8114C2.55528 12.5295 2.3326 13.3476 2.33301 14.1808V20.9941C2.35446 22.2413 2.86578 23.4299 3.75647 24.3031C4.64716 25.1764 5.84568 25.6641 7.09301 25.6608H20.9063C22.1537 25.6641 23.3522 25.1764 24.2429 24.3031C25.1336 23.4299 25.6449 22.2413 25.6663 20.9941V14.1808C25.664 13.357 25.4437 12.5485 25.0277 11.8375C24.6117 11.1264 24.015 10.5382 23.298 10.1325ZM19.693 16.2925C19.6929 16.7203 19.6081 17.1439 19.4436 17.5389C19.2791 17.9338 19.0381 18.2924 18.7345 18.5938C18.4309 18.8952 18.0706 19.1337 17.6745 19.2953C17.2784 19.457 16.8542 19.5387 16.4263 19.5358H11.6313C10.9795 19.5423 10.3405 19.3543 9.79605 18.9958C9.25158 18.6373 8.82635 18.1246 8.57468 17.5233C8.4085 17.1222 8.32517 16.6916 8.32968 16.2575V15.0908C8.32968 14.8587 8.42186 14.6362 8.58596 14.4721C8.75005 14.308 8.97261 14.2158 9.20468 14.2158C9.43674 14.2158 9.6593 14.308 9.82339 14.4721C9.98749 14.6362 10.0797 14.8587 10.0797 15.0908V16.2575C10.0806 16.4531 10.1202 16.6466 10.1963 16.8268C10.2724 17.007 10.3835 17.1704 10.523 17.3075C10.8123 17.5921 11.202 17.752 11.608 17.7508H16.403C16.8049 17.7488 17.1901 17.5897 17.4763 17.3075C17.6186 17.1724 17.7314 17.0095 17.8077 16.8288C17.884 16.6481 17.9221 16.4536 17.9197 16.2575V15.0908C17.9197 14.8587 18.0119 14.6362 18.176 14.4721C18.3401 14.308 18.5626 14.2158 18.7947 14.2158C19.0267 14.2158 19.2493 14.308 19.4134 14.4721C19.5775 14.6362 19.6697 14.8587 19.6697 15.0908L19.693 16.2925ZM21.548 9.54914C21.3423 9.53137 21.1354 9.53137 20.9297 9.54914H7.11634C6.9145 9.53158 6.71152 9.53158 6.50968 9.54914V9.19914C6.50794 9.00312 6.54638 8.80883 6.62263 8.62824C6.69887 8.44765 6.81131 8.2846 6.95301 8.14914C7.23922 7.86696 7.62442 7.70786 8.02634 7.70581H20.0197C20.4257 7.70581 20.8153 7.86447 21.1047 8.14914C21.2442 8.28623 21.3553 8.44959 21.4313 8.62981C21.5074 8.81002 21.5471 9.00352 21.548 9.19914V9.54914Z" fill="#C1920C"/>
</svg>
