<svg width="23" height="26" viewBox="0 0 23 26" fill="none" xmlns="http://www.w3.org/2000/svg">
<path d="M10.0003 15.3333V24.6667H0.666992C0.666992 22.1913 1.65032 19.8173 3.40066 18.067C5.151 16.3167 7.52497 15.3333 10.0003 15.3333ZM10.0003 14.1667C6.13283 14.1667 3.00033 11.0342 3.00033 7.16666C3.00033 3.29916 6.13283 0.166656 10.0003 0.166656C13.8678 0.166656 17.0003 3.29916 17.0003 7.16666C17.0003 11.0342 13.8678 14.1667 10.0003 14.1667ZM21.0207 22.3707L22.7753 24.1242L21.1245 25.775L19.371 24.0203C18.3926 24.5972 17.2373 24.7975 16.1218 24.5836C15.0063 24.3696 14.0071 23.7562 13.3115 22.8582C12.6159 21.9603 12.2717 20.8394 12.3434 19.7059C12.4151 18.5723 12.8977 17.5037 13.7009 16.7006C14.5041 15.8974 15.5726 15.4147 16.7062 15.343C17.8398 15.2714 18.9606 15.6156 19.8586 16.3111C20.7565 17.0067 21.37 18.0059 21.5839 19.1214C21.7978 20.237 21.5976 21.3922 21.0207 22.3707ZM17.0003 22.3333C17.6192 22.3333 18.2127 22.0875 18.6502 21.6499C19.0878 21.2123 19.3337 20.6188 19.3337 20C19.3337 19.3812 19.0878 18.7877 18.6502 18.3501C18.2127 17.9125 17.6192 17.6667 17.0003 17.6667C16.3815 17.6667 15.788 17.9125 15.3504 18.3501C14.9128 18.7877 14.667 19.3812 14.667 20C14.667 20.6188 14.9128 21.2123 15.3504 21.6499C15.788 22.0875 16.3815 22.3333 17.0003 22.3333Z" fill="#EA490B"/>
</svg>
