<svg width="28" height="28" viewBox="0 0 28 28" fill="none" xmlns="http://www.w3.org/2000/svg">
<path d="M5.83333 24.5C5.19167 24.5 4.64256 24.2717 4.186 23.8152C3.72944 23.3586 3.50078 22.8091 3.5 22.1667V5.83333C3.5 5.19167 3.72867 4.64256 4.186 4.186C4.64333 3.72944 5.19244 3.50078 5.83333 3.5H22.1667C22.8083 3.5 23.3578 3.72867 23.8152 4.186C24.2725 4.64333 24.5008 5.19244 24.5 5.83333V12.8333C24.5 13.1639 24.388 13.4412 24.164 13.6652C23.94 13.8892 23.6631 14.0008 23.3333 14C23.0036 13.9992 22.7267 13.8872 22.5027 13.664C22.2787 13.4408 22.1667 13.1639 22.1667 12.8333V5.83333H5.83333V22.1667H12.8333C13.1639 22.1667 13.4412 22.2787 13.6652 22.5027C13.8892 22.7267 14.0008 23.0036 14 23.3333C13.9992 23.6631 13.8872 23.9404 13.664 24.1652C13.4408 24.3899 13.1639 24.5016 12.8333 24.5H5.83333ZM20.5333 22.1667L10.5 12.1333C10.2861 11.9194 10.1741 11.6523 10.164 11.3318C10.1539 11.0114 10.2659 10.7341 10.5 10.5C10.7139 10.2861 10.9861 10.1792 11.3167 10.1792C11.6472 10.1792 11.9194 10.2861 12.1333 10.5L22.1667 20.5042V17.5C22.1667 17.1694 22.2787 16.8926 22.5027 16.6693C22.7267 16.4461 23.0036 16.3341 23.3333 16.3333C23.6631 16.3326 23.9404 16.4446 24.1652 16.6693C24.3899 16.8941 24.5016 17.171 24.5 17.5V23.3333C24.5 23.6639 24.388 23.9412 24.164 24.1652C23.94 24.3892 23.6631 24.5008 23.3333 24.5H17.5C17.1694 24.5 16.8926 24.388 16.6693 24.164C16.4461 23.94 16.3341 23.6631 16.3333 23.3333C16.3326 23.0036 16.4446 22.7267 16.6693 22.5027C16.8941 22.2787 17.171 22.1667 17.5 22.1667H20.5333Z" fill="#C51162"/>
</svg>
