<svg width="28" height="28" viewBox="0 0 28 28" fill="none" xmlns="http://www.w3.org/2000/svg">
<g clip-path="url(#clip0_391_3547)">
<path d="M14.0002 3.5C13.1736 3.49877 12.3733 3.79011 11.741 4.32241C11.1086 4.85472 10.6851 5.59364 10.5454 6.4083C10.4056 7.22296 10.5587 8.06079 10.9775 8.77339C11.3963 9.48599 12.0538 10.0274 12.8335 10.3017V12.8333H9.33353C8.40527 12.8333 7.51503 13.2021 6.85866 13.8585C6.20228 14.5148 5.83353 15.4051 5.83353 16.3333V17.6983C5.05479 17.9736 4.39842 18.5152 3.98044 19.2276C3.56247 19.94 3.4098 20.7772 3.54942 21.5913C3.68904 22.4053 4.11196 23.1438 4.74343 23.6762C5.3749 24.2086 6.17425 24.5006 7.0002 24.5006C7.82614 24.5006 8.6255 24.2086 9.25696 23.6762C9.88843 23.1438 10.3114 22.4053 10.451 21.5913C10.5906 20.7772 10.4379 19.94 10.02 19.2276C9.60197 18.5152 8.94561 17.9736 8.16686 17.6983V16.3333C8.16686 16.0239 8.28978 15.7272 8.50857 15.5084C8.72737 15.2896 9.02411 15.1667 9.33353 15.1667H18.6669C18.9763 15.1667 19.273 15.2896 19.4918 15.5084C19.7106 15.7272 19.8335 16.0239 19.8335 16.3333V17.6983C19.0548 17.9736 18.3984 18.5152 17.9804 19.2276C17.5625 19.94 17.4098 20.7772 17.5494 21.5913C17.689 22.4053 18.112 23.1438 18.7434 23.6762C19.3749 24.2086 20.1743 24.5006 21.0002 24.5006C21.8261 24.5006 22.6255 24.2086 23.257 23.6762C23.8884 23.1438 24.3114 22.4053 24.451 21.5913C24.5906 20.7772 24.4379 19.94 24.02 19.2276C23.602 18.5152 22.9456 17.9736 22.1669 17.6983V16.3333C22.1669 15.4051 21.7981 14.5148 21.1417 13.8585C20.4854 13.2021 19.5951 12.8333 18.6669 12.8333H15.1669V10.3017C15.9452 10.0262 16.6011 9.48445 17.0188 8.77221C17.4364 8.05997 17.5889 7.22305 17.4494 6.40927C17.3098 5.59549 16.8871 4.85723 16.256 4.32489C15.6248 3.79255 14.8259 3.50038 14.0002 3.5Z" fill="#3B54B6"/>
</g>
<defs>
<clipPath id="clip0_391_3547">
<rect width="28" height="28" fill="white"/>
</clipPath>
</defs>
</svg>
