<svg width="32" height="35" viewBox="0 0 32 35" fill="none" xmlns="http://www.w3.org/2000/svg">
<path d="M23 25V28.75H8.5C7.30653 28.75 6.16193 28.1574 5.31802 27.1025C4.47411 26.0476 4 24.6168 4 23.125C4 21.6332 4.47411 20.2024 5.31802 19.1475C6.16193 18.0926 7.30653 17.5 8.5 17.5H9V15H8.5C6.77609 15 5.12279 15.856 3.90381 17.3798C2.68482 18.9035 2 20.9701 2 23.125C2 25.2799 2.68482 27.3465 3.90381 28.8702C5.12279 30.394 6.77609 31.25 8.5 31.25H23V35H31V25H23ZM29 32.5H25V27.5H29V32.5Z" fill="#C51162"/>
<path d="M21 22H19V19H13V22H11V19C11 18.4696 11.2107 17.9609 11.5858 17.5858C11.9609 17.2107 12.4696 17 13 17H19C19.5304 17 20.0391 17.2107 20.4142 17.5858C20.7893 17.9609 21 18.4696 21 19V22ZM16 16C15.4067 16 14.8266 15.8241 14.3333 15.4944C13.8399 15.1648 13.4554 14.6962 13.2284 14.1481C13.0013 13.5999 12.9419 12.9967 13.0576 12.4147C13.1734 11.8328 13.4591 11.2982 13.8787 10.8787C14.2982 10.4591 14.8328 10.1734 15.4147 10.0576C15.9967 9.94189 16.5999 10.0013 17.1481 10.2284C17.6962 10.4554 18.1648 10.8399 18.4944 11.3333C18.8241 11.8266 19 12.4067 19 13C18.9992 13.7954 18.6829 14.558 18.1204 15.1204C17.558 15.6829 16.7954 15.9992 16 16ZM16 12C15.8022 12 15.6089 12.0587 15.4444 12.1685C15.28 12.2784 15.1518 12.4346 15.0761 12.6173C15.0004 12.8 14.9806 13.0011 15.0192 13.1951C15.0578 13.3891 15.153 13.5673 15.2929 13.7071C15.4327 13.847 15.6109 13.9422 15.8049 13.9808C15.9989 14.0194 16.2 13.9996 16.3827 13.9239C16.5654 13.8482 16.7216 13.72 16.8315 13.5556C16.9414 13.3911 17 13.1978 17 13C17 12.7348 16.8946 12.4804 16.7071 12.2929C16.5196 12.1054 16.2652 12 16 12Z" fill="#C51162"/>
<path d="M23.5 4.75H9V1H1V11H9V7.25H23.5C24.6935 7.25 25.8381 7.84263 26.682 8.89752C27.5259 9.95242 28 11.3832 28 12.875C28 14.3668 27.5259 15.7976 26.682 16.8525C25.8381 17.9074 24.6935 18.5 23.5 18.5H23V21H23.5C25.2239 21 26.8772 20.144 28.0962 18.6202C29.3152 17.0965 30 15.0299 30 12.875C30 10.7201 29.3152 8.65349 28.0962 7.12976C26.8772 5.60602 25.2239 4.75 23.5 4.75ZM7 8.5H3V3.5H7V8.5Z" fill="#C51162"/>
</svg>
