<svg width="28" height="28" viewBox="0 0 28 28" fill="none" xmlns="http://www.w3.org/2000/svg">
<g clip-path="url(#clip0_378_3463)">
<path d="M14.6778 0.218738L27.2778 8.96874C27.9516 9.43905 28.1966 10.5055 27.8203 11.3476C27.4441 12.1898 26.591 12.4961 25.9172 12.0258L13.9997 3.75155L2.07784 12.0312C1.40409 12.5016 0.55096 12.1953 0.17471 11.3531C-0.20154 10.5109 0.0434603 9.44452 0.71721 8.97421L13.3216 0.218738C13.746 -0.0765747 14.2578 -0.0765747 14.6822 0.218738H14.6778ZM13.9997 8.74999C14.4638 8.74999 14.909 8.98046 15.2371 9.39069C15.5653 9.80093 15.7497 10.3573 15.7497 10.9375C15.7497 11.5176 15.5653 12.074 15.2371 12.4843C14.909 12.8945 14.4638 13.125 13.9997 13.125C13.5356 13.125 13.0905 12.8945 12.7623 12.4843C12.4341 12.074 12.2497 11.5176 12.2497 10.9375C12.2497 10.3573 12.4341 9.80093 12.7623 9.39069C13.0905 8.98046 13.5356 8.74999 13.9997 8.74999ZM6.29971 14C6.76384 14 7.20896 14.2305 7.53715 14.6407C7.86534 15.0509 8.04971 15.6073 8.04971 16.1875C8.04971 16.7676 7.86534 17.324 7.53715 17.7343C7.20896 18.1445 6.76384 18.375 6.29971 18.375C5.83558 18.375 5.39046 18.1445 5.06227 17.7343C4.73408 17.324 4.54971 16.7676 4.54971 16.1875C4.54971 15.6073 4.73408 15.0509 5.06227 14.6407C5.39046 14.2305 5.83558 14 6.29971 14ZM19.9497 16.1875C19.9497 15.6073 20.1341 15.0509 20.4623 14.6407C20.7905 14.2305 21.2356 14 21.6997 14C22.1638 14 22.609 14.2305 22.9371 14.6407C23.2653 15.0509 23.4497 15.6073 23.4497 16.1875C23.4497 16.7676 23.2653 17.324 22.9371 17.7343C22.609 18.1445 22.1638 18.375 21.6997 18.375C21.2356 18.375 20.7905 18.1445 20.4623 17.7343C20.1341 17.324 19.9497 16.7676 19.9497 16.1875ZM9.92659 26.8734L8.74971 24.1445V26.25C8.74971 27.218 8.12409 28 7.34971 28H5.24971C4.47534 28 3.84971 27.218 3.84971 26.25V24.1445L2.67284 26.8734C2.39721 27.5133 1.76284 27.7484 1.25096 27.4094C0.739085 27.0703 0.55096 26.2719 0.82221 25.632L2.48034 21.7875C3.14971 20.2289 4.45346 19.2555 5.87096 19.2555H6.72409C7.43721 19.2555 8.11971 19.5016 8.71034 19.9445L10.1803 16.5375C10.8497 14.9789 12.1535 14.0055 13.571 14.0055H14.4241C15.8416 14.0055 17.141 14.9789 17.8147 16.5375L19.2847 19.9445C19.8753 19.5016 20.5578 19.2555 21.271 19.2555H22.1241C23.5416 19.2555 24.841 20.2289 25.5147 21.7875L27.1728 25.632C27.4485 26.2719 27.256 27.0648 26.7441 27.4094C26.2322 27.7539 25.5978 27.5133 25.3222 26.8734L24.1497 24.1445V26.25C24.1497 27.218 23.5241 28 22.7497 28H20.6497C19.8753 28 19.2497 27.218 19.2497 26.25V24.1445L18.0728 26.8734C17.7972 27.5133 17.1628 27.7484 16.651 27.4094C16.1391 27.0703 15.951 26.2719 16.2222 25.632L17.8103 21.9406C17.736 21.8476 17.6703 21.7437 17.6222 21.6234L16.4497 18.8945V21.875C16.4497 22.843 15.8241 23.625 15.0497 23.625H12.9497C12.1753 23.625 11.5497 22.843 11.5497 21.875V18.8945L10.3728 21.6234C10.3203 21.7437 10.2591 21.8476 10.1847 21.9406L11.7728 25.632C12.0485 26.2719 11.856 27.0648 11.3441 27.4094C10.8322 27.7539 10.1978 27.5133 9.92221 26.8734H9.92659Z" fill="#F78A26"/>
</g>
<defs>
<clipPath id="clip0_378_3463">
<rect width="28" height="28" fill="white"/>
</clipPath>
</defs>
</svg>
