<svg width="88" height="88" viewBox="0 0 88 88" fill="none" xmlns="http://www.w3.org/2000/svg">
<circle cx="44" cy="44" r="44" fill="#0D992C"/>
<g clip-path="url(#clip0_321_2551)">
<path d="M59 49H64V64H44V49H49V44H59V49ZM51.5 49H56.5V46.5H51.5V49ZM61.5 56.5H59V59H56.5V56.5H51.5V59H49V56.5H46.5V61.5H61.5V56.5ZM46.5 51.5V54H61.5V51.5H46.5ZM41.5 41.5C41.5 42.7109 41.2331 43.8438 40.6992 44.8984C40.1654 45.9531 39.4036 46.8385 38.4141 47.5547C39 47.8542 39.5534 48.1992 40.0742 48.5898C40.5951 48.9805 41.0703 49.4167 41.5 49.8984V56.5C41.5 55.4714 41.3047 54.5013 40.9141 53.5898C40.5234 52.6784 39.9896 51.8841 39.3125 51.207C38.6354 50.5299 37.8346 49.9896 36.9102 49.5859C35.9857 49.1823 35.0156 48.987 34 49C32.9583 49 31.9883 49.1953 31.0898 49.5859C30.1914 49.9766 29.3971 50.5104 28.707 51.1875C28.0169 51.8646 27.4766 52.6654 27.0859 53.5898C26.6953 54.5143 26.5 55.4844 26.5 56.5H24C24 55.5495 24.1302 54.6315 24.3906 53.7461C24.651 52.8607 25.0221 52.0208 25.5039 51.2266C25.9857 50.4323 26.5781 49.7292 27.2812 49.1172C27.9844 48.5052 28.7526 47.9779 29.5859 47.5352C28.6094 46.832 27.8542 45.9531 27.3203 44.8984C26.7865 43.8438 26.513 42.7109 26.5 41.5C26.5 40.4714 26.6953 39.5013 27.0859 38.5898C27.4766 37.6784 28.0104 36.8841 28.6875 36.207C29.3646 35.5299 30.1589 34.9896 31.0703 34.5859C31.9818 34.1823 32.9583 33.987 34 34C34.9375 34 35.8294 34.1628 36.6758 34.4883C37.5221 34.8138 38.2969 35.2956 39 35.9336C39.4167 35.556 39.8789 35.224 40.3867 34.9375C39.944 34.4818 39.6055 33.9544 39.3711 33.3555C39.1367 32.7565 39.013 32.138 39 31.5C39 30.8099 39.1302 30.1654 39.3906 29.5664C39.651 28.9674 40.0091 28.4336 40.4648 27.9648C40.9206 27.4961 41.4479 27.138 42.0469 26.8906C42.6458 26.6432 43.2969 26.513 44 26.5C44.6901 26.5 45.3346 26.6302 45.9336 26.8906C46.5326 27.151 47.0664 27.5091 47.5352 27.9648C48.0039 28.4206 48.362 28.9479 48.6094 29.5469C48.8568 30.1458 48.987 30.7969 49 31.5C49 32.138 48.8828 32.7565 48.6484 33.3555C48.4141 33.9544 48.069 34.4818 47.6133 34.9375C48.694 35.5365 49.5729 36.3438 50.25 37.3594C50.9271 36.3438 51.806 35.5365 52.8867 34.9375C52.444 34.4818 52.1055 33.9544 51.8711 33.3555C51.6367 32.7565 51.513 32.138 51.5 31.5C51.5 30.8099 51.6302 30.1654 51.8906 29.5664C52.151 28.9674 52.5091 28.4336 52.9648 27.9648C53.4206 27.4961 53.9479 27.138 54.5469 26.8906C55.1458 26.6432 55.7969 26.513 56.5 26.5C57.1901 26.5 57.8346 26.6302 58.4336 26.8906C59.0326 27.151 59.5664 27.5091 60.0352 27.9648C60.5039 28.4206 60.862 28.9479 61.1094 29.5469C61.3568 30.1458 61.487 30.7969 61.5 31.5C61.5 32.138 61.3828 32.7565 61.1484 33.3555C60.9141 33.9544 60.569 34.4818 60.1133 34.9375C60.7122 35.263 61.2526 35.6602 61.7344 36.1289C62.2161 36.5977 62.6198 37.112 62.9453 37.6719C63.2708 38.2318 63.5312 38.8438 63.7266 39.5078C63.9219 40.1719 64.013 40.8359 64 41.5H61.5C61.5 40.8099 61.3698 40.1654 61.1094 39.5664C60.849 38.9674 60.4909 38.4336 60.0352 37.9648C59.5794 37.4961 59.0521 37.138 58.4531 36.8906C57.8542 36.6432 57.2031 36.513 56.5 36.5C55.8099 36.5 55.1654 36.6302 54.5664 36.8906C53.9674 37.151 53.4336 37.5091 52.9648 37.9648C52.4961 38.4206 52.138 38.9479 51.8906 39.5469C51.6432 40.1458 51.513 40.7969 51.5 41.5H49C49 40.8099 48.8698 40.1654 48.6094 39.5664C48.349 38.9674 47.9909 38.4336 47.5352 37.9648C47.0794 37.4961 46.5521 37.138 45.9531 36.8906C45.3542 36.6432 44.7031 36.513 44 36.5C43.362 36.5 42.7435 36.6172 42.1445 36.8516C41.5456 37.0859 41.0182 37.431 40.5625 37.8867C40.875 38.4336 41.1094 39.013 41.2656 39.625C41.4219 40.237 41.5 40.862 41.5 41.5ZM56.5 29C56.1484 29 55.8229 29.0651 55.5234 29.1953C55.224 29.3255 54.9635 29.5013 54.7422 29.7227C54.5208 29.944 54.3385 30.2109 54.1953 30.5234C54.0521 30.8359 53.987 31.1615 54 31.5C54 31.8516 54.0651 32.1771 54.1953 32.4766C54.3255 32.776 54.5013 33.0365 54.7227 33.2578C54.944 33.4792 55.2109 33.6615 55.5234 33.8047C55.8359 33.9479 56.1615 34.013 56.5 34C56.8516 34 57.1771 33.9349 57.4766 33.8047C57.776 33.6745 58.0365 33.4987 58.2578 33.2773C58.4792 33.056 58.6615 32.7891 58.8047 32.4766C58.9479 32.1641 59.013 31.8385 59 31.5C59 31.1484 58.9349 30.8229 58.8047 30.5234C58.6745 30.224 58.4987 29.9635 58.2773 29.7422C58.056 29.5208 57.7891 29.3385 57.4766 29.1953C57.1641 29.0521 56.8385 28.987 56.5 29ZM44 29C43.6484 29 43.3229 29.0651 43.0234 29.1953C42.724 29.3255 42.4635 29.5013 42.2422 29.7227C42.0208 29.944 41.8385 30.2109 41.6953 30.5234C41.5521 30.8359 41.487 31.1615 41.5 31.5C41.5 31.8516 41.5651 32.1771 41.6953 32.4766C41.8255 32.776 42.0013 33.0365 42.2227 33.2578C42.444 33.4792 42.7109 33.6615 43.0234 33.8047C43.3359 33.9479 43.6615 34.013 44 34C44.3516 34 44.6771 33.9349 44.9766 33.8047C45.276 33.6745 45.5365 33.4987 45.7578 33.2773C45.9792 33.056 46.1615 32.7891 46.3047 32.4766C46.4479 32.1641 46.513 31.8385 46.5 31.5C46.5 31.1484 46.4349 30.8229 46.3047 30.5234C46.1745 30.224 45.9987 29.9635 45.7773 29.7422C45.556 29.5208 45.2891 29.3385 44.9766 29.1953C44.6641 29.0521 44.3385 28.987 44 29ZM34 46.5C34.6901 46.5 35.3346 46.3698 35.9336 46.1094C36.5326 45.849 37.0664 45.4909 37.5352 45.0352C38.0039 44.5794 38.362 44.0521 38.6094 43.4531C38.8568 42.8542 38.987 42.2031 39 41.5C39 40.8099 38.8698 40.1654 38.6094 39.5664C38.349 38.9674 37.9909 38.4336 37.5352 37.9648C37.0794 37.4961 36.5521 37.138 35.9531 36.8906C35.3542 36.6432 34.7031 36.513 34 36.5C33.3099 36.5 32.6654 36.6302 32.0664 36.8906C31.4674 37.151 30.9336 37.5091 30.4648 37.9648C29.9961 38.4206 29.638 38.9479 29.3906 39.5469C29.1432 40.1458 29.013 40.7969 29 41.5C29 42.1901 29.1302 42.8346 29.3906 43.4336C29.651 44.0326 30.0091 44.5664 30.4648 45.0352C30.9206 45.5039 31.4479 45.862 32.0469 46.1094C32.6458 46.3568 33.2969 46.487 34 46.5Z" fill="white"/>
</g>
<defs>
<clipPath id="clip0_321_2551">
<rect width="40" height="40" fill="white" transform="translate(24 24)"/>
</clipPath>
</defs>
</svg>
