<svg width="88" height="88" viewBox="0 0 88 88" fill="none" xmlns="http://www.w3.org/2000/svg">
<circle cx="44" cy="44" r="44" fill="#E49500"/>
<path d="M44.4666 42.1223C43.2169 42.1091 41.9991 41.7265 40.9664 41.0226C39.9337 40.3188 39.1323 39.3251 38.6631 38.1667C38.194 37.0084 38.078 35.7371 38.3299 34.513C38.5817 33.2889 39.1901 32.1666 40.0785 31.2875C40.9668 30.4085 42.0953 29.8119 43.322 29.5728C44.5487 29.3338 45.8187 29.4631 46.9721 29.9443C48.1255 30.4256 49.1107 31.2373 49.8037 32.2773C50.4967 33.3174 50.8666 34.5392 50.8666 35.7889C50.8549 37.4766 50.1747 39.0907 48.9751 40.2778C47.7755 41.4649 46.1543 42.1282 44.4666 42.1223ZM44.4666 31.6778C43.6565 31.6909 42.8683 31.9432 42.2011 32.4028C41.5338 32.8625 41.0173 33.509 40.7163 34.2613C40.4153 35.0136 40.3434 35.838 40.5095 36.631C40.6755 37.4241 41.0723 38.1504 41.6498 38.7187C42.2273 39.287 42.9598 39.6719 43.7555 39.8252C44.5511 39.9785 45.3742 39.8933 46.1216 39.5803C46.8689 39.2673 47.5071 38.7404 47.9559 38.0658C48.4048 37.3913 48.6443 36.5992 48.6444 35.7889C48.6327 34.6907 48.1866 33.6417 47.4038 32.8713C46.6209 32.101 45.5649 31.6719 44.4666 31.6778Z" fill="white"/>
<path d="M44.4667 42.1223C43.217 42.1091 41.9991 41.7265 40.9664 41.0226C39.9337 40.3188 39.1324 39.3251 38.6632 38.1667C38.1941 37.0084 38.0781 35.7371 38.33 34.513C38.5818 33.2889 39.1902 32.1666 40.0785 31.2875C40.9669 30.4085 42.0954 29.8119 43.3221 29.5728C44.5488 29.3338 45.8188 29.4631 46.9722 29.9443C48.1256 30.4256 49.1108 31.2373 49.8038 32.2773C50.4968 33.3174 50.8666 34.5392 50.8667 35.7889C50.855 37.4766 50.1748 39.0907 48.9752 40.2778C47.7756 41.4649 46.1544 42.1282 44.4667 42.1223ZM44.4667 31.6778C43.6566 31.6909 42.8684 31.9432 42.2011 32.4028C41.5339 32.8625 41.0174 33.509 40.7164 34.2613C40.4154 35.0136 40.3435 35.838 40.5096 36.631C40.6756 37.4241 41.0723 38.1504 41.6499 38.7187C42.2274 39.287 42.9599 39.6719 43.7555 39.8252C44.5511 39.9785 45.3743 39.8933 46.1216 39.5803C46.869 39.2673 47.5071 38.7404 47.956 38.0658C48.4049 37.3913 48.6444 36.5992 48.6445 35.7889C48.6328 34.6907 48.1867 33.6417 47.4039 32.8713C46.621 32.101 45.565 31.6719 44.4667 31.6778ZM48.3445 43.6111C43.4162 42.7536 38.3427 43.5341 33.9 45.8334C33.5847 46.0085 33.3235 46.2669 33.1452 46.5805C32.9669 46.894 32.8782 47.2506 32.8889 47.6111V51.5667C32.8889 51.8614 33.006 52.144 33.2144 52.3524C33.4227 52.5607 33.7054 52.6778 34 52.6778C34.2947 52.6778 34.5773 52.5607 34.7857 52.3524C34.9941 52.144 35.1112 51.8614 35.1112 51.5667V47.7556C39.2308 45.6885 43.9156 45.0326 48.4445 45.8889L48.3445 43.6111Z" fill="white"/>
<path d="M60.6667 48.4444H53.2223V46.8C53.2223 46.5053 53.1052 46.2227 52.8968 46.0143C52.6885 45.8059 52.4059 45.6888 52.1112 45.6888C51.8165 45.6888 51.5339 45.8059 51.3255 46.0143C51.1171 46.2227 51.0001 46.5053 51.0001 46.8V48.4444H42.8889C42.5943 48.4444 42.3116 48.5615 42.1033 48.7698C41.8949 48.9782 41.7778 49.2608 41.7778 49.5555V60.6666C41.7778 60.9613 41.8949 61.2439 42.1033 61.4523C42.3116 61.6607 42.5943 61.7777 42.8889 61.7777H60.6667C60.9614 61.7777 61.244 61.6607 61.4524 61.4523C61.6608 61.2439 61.7778 60.9613 61.7778 60.6666V49.5555C61.7778 49.2608 61.6608 48.9782 61.4524 48.7698C61.244 48.5615 60.9614 48.4444 60.6667 48.4444ZM59.5556 59.5555H44.0001V50.6666H51.0001V51.1222C51.0001 51.4169 51.1171 51.6995 51.3255 51.9079C51.5339 52.1162 51.8165 52.2333 52.1112 52.2333C52.4059 52.2333 52.6885 52.1162 52.8968 51.9079C53.1052 51.6995 53.2223 51.4169 53.2223 51.1222V50.6666H59.5556V59.5555Z" fill="white"/>
<path d="M48.2333 54.4667H54.8555V56.0223H48.2333V54.4667ZM36.0444 37.6C32.9682 37.6515 29.9454 38.412 27.2111 39.8223C26.9137 39.9793 26.6646 40.2143 26.4904 40.502C26.3162 40.7897 26.2235 41.1193 26.2222 41.4556V44.9C26.2222 45.1947 26.3392 45.4773 26.5476 45.6857C26.756 45.8941 27.0386 46.0111 27.3333 46.0111C27.628 46.0111 27.9106 45.8941 28.119 45.6857C28.3273 45.4773 28.4444 45.1947 28.4444 44.9V41.6778C31.0569 40.3774 33.9495 39.7401 36.8666 39.8223C36.4849 39.1259 36.2079 38.3771 36.0444 37.6ZM60.7888 39.8111C58.3365 38.5247 55.6413 37.7676 52.8777 37.5889C52.715 38.3646 52.4418 39.113 52.0666 39.8111C54.67 39.8735 57.2274 40.5109 59.5555 41.6778V44.9C59.5555 45.1947 59.6726 45.4773 59.8809 45.6857C60.0893 45.8941 60.3719 46.0111 60.6666 46.0111C60.9613 46.0111 61.2439 45.8941 61.4523 45.6857C61.6607 45.4773 61.7777 45.1947 61.7777 44.9V41.4556C61.7784 41.1174 61.6866 40.7854 61.5123 40.4956C61.3381 40.2058 61.0879 39.9691 60.7888 39.8111ZM35.8444 35.7889V35.0445C34.974 34.928 34.182 34.4803 33.6334 33.7946C33.0847 33.1089 32.8217 32.238 32.899 31.3632C32.9763 30.4884 33.388 29.6772 34.0484 29.0983C34.7088 28.5195 35.567 28.2176 36.4444 28.2556C37.357 28.2539 38.2341 28.6088 38.8888 29.2445C39.4665 28.768 40.101 28.3649 40.7777 28.0445C40.0217 27.1752 39.0201 26.5554 37.9048 26.2668C36.7895 25.9781 35.613 26.0342 34.5302 26.4276C33.4474 26.821 32.5093 27.5333 31.8394 28.4705C31.1695 29.4078 30.7994 30.526 30.7777 31.6778C30.801 33.0875 31.3491 34.4379 32.3147 35.4653C33.2804 36.4926 34.5944 37.123 35.9999 37.2334C35.9057 36.7574 35.8536 36.274 35.8444 35.7889ZM51.5222 26.0334C50.7586 26.0335 50.0027 26.1859 49.2988 26.4816C48.5948 26.7774 47.9568 27.2104 47.4222 27.7556C48.1733 28.0278 48.8836 28.4016 49.5333 28.8667C50.052 28.5066 50.6587 28.2941 51.2887 28.2517C51.9188 28.2094 52.5485 28.3388 53.1107 28.6262C53.673 28.9136 54.1467 29.3482 54.4814 29.8836C54.816 30.4191 54.9991 31.0354 55.0111 31.6667C55.0041 32.3152 54.8136 32.9484 54.4616 33.4931C54.1096 34.0378 53.6105 34.4717 53.0222 34.7445C53.0669 35.0871 53.0891 35.4323 53.0888 35.7778C53.0859 36.2244 53.0487 36.6702 52.9777 37.1111C54.1882 36.8 55.2618 36.0973 56.0314 35.1127C56.8011 34.128 57.2236 32.9165 57.2333 31.6667C57.2186 30.1637 56.6097 28.7276 55.5396 27.6721C54.4696 26.6166 53.0252 26.0274 51.5222 26.0334Z" fill="white"/>
</svg>
