<svg width="28" height="28" viewBox="0 0 28 28" fill="none" xmlns="http://www.w3.org/2000/svg">
<path fill-rule="evenodd" clip-rule="evenodd" d="M2.35517 8.74415C2.33301 9.59465 2.33301 10.5607 2.33301 11.6667V14H11.7795C11.3817 13.8126 10.9548 13.6947 10.5172 13.6512L8.16634 13.4167C6.63451 13.2638 5.86801 13.1868 5.24617 12.9348C4.59471 12.6707 4.01134 12.2628 3.53963 11.7416C3.06792 11.2204 2.72005 10.5993 2.52201 9.92482C2.42517 9.59349 2.37734 9.22949 2.35517 8.74415ZM25.5193 6.73749L25.083 19.8333C24.5284 19.8334 23.9791 19.7242 23.4667 19.512C22.9542 19.2999 22.4886 18.9888 22.0963 18.5967L20.7803 17.2807C20.3487 16.849 20.1328 16.6332 19.9147 16.4955C19.5413 16.259 19.1083 16.1335 18.6663 16.1335C18.2243 16.1335 17.7914 16.259 17.418 16.4955C17.1998 16.6332 16.984 16.849 16.5523 17.2807L15.6493 18.1837C15.514 18.3184 15.3418 18.4101 15.1545 18.4472C14.9671 18.4842 14.773 18.465 14.5966 18.3919C14.4201 18.3187 14.2693 18.195 14.1631 18.0363C14.0568 17.8776 14 17.691 13.9997 17.5V25.6667H16.333C20.7325 25.6667 22.9328 25.6667 24.299 24.2993C25.6663 22.9332 25.6663 20.7328 25.6663 16.3333V11.6667C25.6663 9.57482 25.6663 7.97999 25.5193 6.73749Z" fill="#F78A26"/>
<path d="M23.4745 4.52433C23.044 4.095 22.4397 3.81383 21.2987 3.661C20.1238 3.50233 18.5663 3.5 16.3333 3.5H11.6667C9.43367 3.5 7.87617 3.50233 6.70133 3.661C5.56033 3.81383 4.956 4.09383 4.52433 4.5255C4.095 4.956 3.81383 5.56033 3.661 6.70133C3.50233 7.87617 3.5 9.43367 3.5 11.6667V12.8333H11.7308C12.2267 12.8333 12.705 12.8333 13.1017 12.887C13.5497 12.9465 14.0595 13.0935 14.483 13.517C14.9065 13.9405 15.0535 14.4503 15.113 14.8983C15.1667 15.2938 15.1667 15.7745 15.1667 16.2703V24.5H16.3333C18.5663 24.5 20.1238 24.4977 21.2987 24.3402C22.4397 24.1862 23.044 23.9062 23.4745 23.4745C23.905 23.044 24.1862 22.4397 24.3402 21.2987C24.4977 20.1238 24.5 18.5663 24.5 16.3333V11.6667C24.5 9.43367 24.4977 7.87617 24.3402 6.70133C24.1862 5.56033 23.9062 4.956 23.4745 4.52433ZM23.4745 4.52433L24.2795 3.71933" stroke="#F78A26" stroke-width="2"/>
<path d="M18.6663 11.6667C19.955 11.6667 20.9997 10.622 20.9997 9.33333C20.9997 8.04467 19.955 7 18.6663 7C17.3777 7 16.333 8.04467 16.333 9.33333C16.333 10.622 17.3777 11.6667 18.6663 11.6667Z" fill="#F78A26"/>
<path d="M9.33312 18.6667V17.5H10.4998V18.6667H9.33312ZM4.22895 24.2433C4.11011 24.3448 3.97209 24.4214 3.82308 24.4685C3.67408 24.5156 3.51713 24.5323 3.36155 24.5176C3.20596 24.5029 3.05492 24.4571 2.91739 24.3829C2.77985 24.3087 2.65863 24.2076 2.56091 24.0856C2.46319 23.9637 2.39097 23.8233 2.34853 23.6729C2.30609 23.5225 2.2943 23.3651 2.31386 23.2101C2.33342 23.055 2.38393 22.9055 2.46239 22.7704C2.54086 22.6352 2.64567 22.5172 2.77062 22.4233L4.22895 24.2433ZM8.16645 24.5V18.6667H10.4998V24.5H8.16645ZM9.33312 19.8333H3.49978V17.5H9.33312V19.8333ZM10.0623 19.5767L4.22895 24.2433L2.77062 22.4233L8.60395 17.7567L10.0623 19.5767Z" fill="#F78A26"/>
</svg>
